<svg width="50" height="222" viewBox="0 0 50 222" fill="none" xmlns="http://www.w3.org/2000/svg">
<rect x="24" y="92" width="4" height="20" fill="#A21414"/>
<path d="M24 122H28V142H24V122Z" fill="#A21414"/>
<path d="M27.4142 60.5858C26.6332 59.8047 25.3668 59.8047 24.5858 60.5858L11.8579 73.3137C11.0768 74.0948 11.0768 75.3611 11.8579 76.1421C12.6389 76.9232 13.9052 76.9232 14.6863 76.1421L26 64.8284L37.3137 76.1421C38.0948 76.9232 39.3611 76.9232 40.1421 76.1421C40.9232 75.3611 40.9232 74.0948 40.1421 73.3137L27.4142 60.5858ZM28 82L28 62L24 62L24 82L28 82Z" fill="#A11414"/>
<path d="M11.748 164.256C11.892 163.8 12.096 163.404 12.36 163.068C12.624 162.756 13.02 162.456 13.548 162.168C14.508 161.664 15.888 161.364 17.688 161.268C18.504 161.22 19.224 161.196 19.848 161.196L23.952 161.196C25.512 161.196 27.024 161.244 28.488 161.34C29.568 161.412 30.48 161.52 31.224 161.664C31.968 161.808 32.712 162.036 33.456 162.348C34.224 162.684 34.764 163.056 35.076 163.464C35.22 163.632 35.388 163.956 35.58 164.436C35.7 164.748 35.832 165.048 35.976 165.336L35.976 166.776L35.976 166.884C35.952 166.908 35.94 166.944 35.94 166.992L35.904 167.172L35.796 167.316C35.724 167.388 35.676 167.424 35.652 167.424C35.604 167.448 35.532 167.46 35.436 167.46L34.896 166.992L34.896 165.48C34.896 165.024 34.668 164.604 34.212 164.22C33.78 163.86 33.228 163.584 32.556 163.392C31.956 163.2 31.248 163.044 30.432 162.924C29.616 162.804 28.908 162.732 28.308 162.708C27.54 162.66 27.012 162.636 26.724 162.636L26.544 162.564C25.2 162.564 23.988 162.54 22.908 162.492L19.272 162.42C18.216 162.42 17.244 162.492 16.356 162.636C15.396 162.756 14.532 163.104 13.764 163.68C12.996 164.232 12.612 165.084 12.612 166.236C12.612 166.596 12.72 166.896 12.936 167.136C12.936 167.496 12.804 167.676 12.54 167.676C12.372 167.676 12.18 167.52 11.964 167.208C11.724 166.92 11.544 166.62 11.424 166.308L11.424 165.12L11.748 164.256ZM11.604 172.434C11.604 172.242 11.676 172.074 11.82 171.93C11.964 171.81 12.144 171.75 12.36 171.75L13.476 171.714C14.34 171.714 15.612 171.786 17.292 171.93C19.164 172.05 20.424 172.11 21.072 172.11L22.692 172.074C23.172 172.05 23.7 172.038 24.276 172.038C25.236 172.038 26.664 172.074 28.56 172.146C30.504 172.218 31.944 172.254 32.88 172.254L34.968 172.218L35.148 172.074L35.364 172.074C35.988 172.074 36.3 172.326 36.3 172.83C36.3 173.214 36.144 173.838 35.832 174.702C35.544 175.59 35.304 176.034 35.112 176.034L35.004 176.034C34.308 176.466 33.612 176.754 32.916 176.898C32.22 177.066 31.332 177.15 30.252 177.15C28.5 177.15 27.072 176.958 25.968 176.574L25.968 176.61C25.776 176.514 25.464 176.322 25.032 176.034L24.276 175.53C23.94 175.962 23.448 176.322 22.8 176.61C22.152 176.922 21.528 177.114 20.928 177.186C20.712 177.21 20.448 177.234 20.136 177.258C19.824 177.282 19.452 177.306 19.02 177.33L18.084 177.366L17.58 177.366C15.276 177.366 13.572 176.646 12.468 175.206C11.892 174.462 11.604 173.538 11.604 172.434ZM24.996 173.55C24.996 175.134 26.592 175.926 29.784 175.926C30.048 175.926 30.564 175.902 31.332 175.854L32.016 175.818L32.088 175.746C32.88 175.65 33.504 175.518 33.96 175.35C34.296 175.23 34.56 175.038 34.752 174.774C34.968 174.51 35.076 174.222 35.076 173.91C35.076 173.382 33.504 173.118 30.36 173.118C29.76 173.118 29.352 173.13 29.136 173.154L28.416 173.154L27.192 173.154C26.808 173.13 26.376 173.118 25.896 173.118L25.464 173.118C25.464 173.118 25.392 173.142 25.248 173.19L24.996 173.262L24.996 173.55ZM13.008 173.01C13.008 173.586 13.2 174.114 13.584 174.594C13.968 175.098 14.46 175.494 15.06 175.782C15.684 176.07 16.296 176.214 16.896 176.214L17.04 176.25L17.328 176.25L17.724 176.25C18.732 176.25 19.692 176.166 20.604 175.998C21.828 175.734 22.716 175.266 23.268 174.594C23.58 174.21 23.736 173.754 23.736 173.226C21.744 173.106 20.112 173.046 18.84 173.046L18.012 173.046C17.316 173.046 16.764 173.082 16.356 173.154C16.14 173.034 15.564 172.974 14.628 172.974L13.692 172.974L13.008 173.01ZM11.64 187.165C11.64 186.949 11.7 186.769 11.82 186.625C11.94 186.481 12.108 186.421 12.324 186.445C14.196 186.493 15.588 186.541 16.5 186.589L18.516 186.661L23.988 186.337C23.964 186.217 23.94 186.061 23.916 185.869C23.892 185.701 23.856 185.581 23.808 185.509C23.736 185.413 23.628 185.257 23.484 185.041C23.364 184.825 23.256 184.645 23.16 184.501C23.064 184.381 22.92 184.285 22.728 184.213C22.536 184.141 22.272 184.033 21.936 183.889C21.6 183.745 21.288 183.625 21 183.529C20.736 183.457 20.448 183.421 20.136 183.421L18.156 183.385L16.176 183.421C15.336 183.397 14.484 183.229 13.62 182.917C12.78 182.629 12.276 182.233 12.108 181.729C12.084 181.657 12.072 181.549 12.072 181.405C12.072 181.213 12.144 181.009 12.288 180.793C12.432 180.601 12.6 180.505 12.792 180.505C12.984 180.505 13.152 180.625 13.296 180.865C13.416 181.057 13.548 181.201 13.692 181.297C13.86 181.417 14.064 181.513 14.304 181.585C15.24 181.897 16.2 182.053 17.184 182.053C18.384 182.053 19.356 182.089 20.1 182.161C20.868 182.257 21.684 182.461 22.548 182.773C22.812 182.869 23.208 183.085 23.736 183.421L24.42 183.853C24.996 183.085 25.56 182.509 26.112 182.125C26.664 181.741 27.348 181.549 28.164 181.549C28.332 181.549 28.584 181.573 28.92 181.621C29.352 181.669 29.724 181.693 30.036 181.693C30.372 181.717 30.648 181.729 30.864 181.729C32.736 181.849 34.2 182.629 35.256 184.069C35.832 184.885 36.12 185.737 36.12 186.625C36.12 187.057 36.024 187.345 35.832 187.489C35.64 187.657 35.328 187.717 34.896 187.669C33.936 187.525 32.736 187.453 31.296 187.453L27.876 187.453C26.34 187.453 25.188 187.465 24.42 187.489C23.316 187.489 22.236 187.525 21.18 187.597C20.076 187.645 19.272 187.669 18.768 187.669L17.04 187.669L13.656 187.669C13.392 187.669 13.164 187.681 12.972 187.705C12.78 187.729 12.612 187.753 12.468 187.777L12.36 187.777C12.168 187.777 12.012 187.729 11.892 187.633C11.748 187.537 11.664 187.405 11.64 187.237L11.64 187.165ZM25.5 184.501C25.308 184.837 25.212 185.161 25.212 185.473C25.212 185.785 25.308 186.073 25.5 186.337L34.896 186.373L34.608 185.689C34.44 185.257 34.284 184.957 34.14 184.789C33.372 183.925 32.472 183.385 31.44 183.169C30.768 183.025 29.952 182.953 28.992 182.953C28.392 182.953 27.948 182.965 27.66 182.989C26.628 183.157 25.908 183.661 25.5 184.501ZM11.784 195.583C11.784 194.911 11.952 194.335 12.288 193.855C12.648 193.375 13.08 193.135 13.584 193.135C13.704 193.135 13.86 193.159 14.052 193.207C14.148 193.231 14.244 193.279 14.34 193.351C14.436 193.423 14.496 193.507 14.52 193.603C14.52 193.771 14.424 193.951 14.232 194.143C14.112 194.239 13.92 194.347 13.656 194.467C13.392 194.587 13.2 194.719 13.08 194.863C12.96 195.007 12.9 195.247 12.9 195.583C12.9 195.919 13.008 196.207 13.224 196.447C13.752 197.143 14.412 197.575 15.204 197.743C16.284 197.983 17.244 198.103 18.084 198.103C18.996 198.103 19.812 197.971 20.532 197.707C21.18 197.467 21.708 197.203 22.116 196.915C22.548 196.651 22.8 196.291 22.872 195.835C22.92 195.571 22.992 195.355 23.088 195.187C23.184 195.019 23.376 194.899 23.664 194.827C23.736 194.899 23.868 195.007 24.06 195.151C24.252 195.319 24.372 195.487 24.42 195.655C24.564 196.135 24.804 196.495 25.14 196.735C25.5 196.975 25.944 197.155 26.472 197.275C27.144 197.419 27.648 197.491 27.984 197.491L30.648 197.527C31.296 197.527 31.884 197.491 32.412 197.419C32.94 197.347 33.564 197.215 34.284 197.023C34.62 196.927 34.848 196.759 34.968 196.519C35.088 196.303 35.172 196.003 35.22 195.619C35.244 195.187 35.076 194.743 34.716 194.287C34.38 193.831 34.008 193.543 33.6 193.423L32.736 193.171C32.808 192.787 32.88 192.523 32.952 192.379C33.024 192.259 33.144 192.199 33.312 192.199C33.432 192.199 33.612 192.235 33.852 192.307C34.092 192.355 34.368 192.427 34.68 192.523C35.016 192.619 35.22 192.739 35.292 192.883C35.604 193.387 35.844 193.855 36.012 194.287C36.18 194.719 36.264 195.175 36.264 195.655C36.264 197.191 35.376 198.127 33.6 198.463C32.784 198.559 32.16 198.607 31.728 198.607C30.528 198.607 28.68 198.535 26.184 198.391C25.32 198.319 24.468 197.887 23.628 197.095C22.788 198.055 21.588 198.727 20.028 199.111C19.572 199.207 19.008 199.255 18.336 199.255C17.568 199.255 16.8 199.195 16.032 199.075C15.264 198.955 14.664 198.799 14.232 198.607C12.6 197.935 11.784 196.927 11.784 195.583ZM11.676 210.45C11.676 210.09 11.724 209.862 11.82 209.766C11.892 209.67 12.108 209.598 12.468 209.55C14.22 209.334 15.312 209.202 15.744 209.154L17.184 208.974C17.304 208.446 17.364 207.846 17.364 207.174L17.436 205.878C17.508 205.302 17.544 204.882 17.544 204.618C17.544 204.474 17.484 204.39 17.364 204.366C17.292 204.366 17.256 204.354 17.256 204.33L16.536 204.258C16.104 204.234 15.24 204.102 13.944 203.862C13.296 203.742 12.792 203.598 12.432 203.43C12.024 203.238 11.82 203.058 11.82 202.89C11.82 202.746 11.88 202.59 12 202.422C12.144 202.254 12.288 202.17 12.432 202.17L12.54 202.206L12.648 202.242C14.352 202.674 16.044 203.034 17.724 203.322L19.956 203.754L22.692 204.186C22.692 204.186 23.484 204.318 25.068 204.582C25.716 204.702 26.76 204.918 28.2 205.23C29.832 205.566 30.948 205.77 31.548 205.842C31.62 205.866 32.064 205.914 32.88 205.986C33.792 206.082 34.464 206.166 34.896 206.238C35.52 206.31 35.88 206.382 35.976 206.454L35.976 206.706C35.952 206.778 35.94 206.862 35.94 206.958C35.94 207.246 36.012 207.462 36.156 207.606C36.156 207.774 36.096 207.918 35.976 208.038C35.88 208.182 35.76 208.254 35.616 208.254C34.464 208.254 33.144 208.338 31.656 208.506C30.888 208.602 30.252 208.674 29.748 208.722C26.652 208.986 20.844 209.658 12.324 210.738L12.216 210.738C11.976 210.738 11.796 210.642 11.676 210.45ZM18.156 208.794C21.612 208.554 26.712 208.098 33.456 207.426L23.844 205.482C21.084 204.93 19.344 204.654 18.624 204.654C18.504 204.654 18.396 205.11 18.3 206.022C18.204 206.934 18.156 207.738 18.156 208.434L18.156 208.794ZM11.928 215.903C11.928 215.423 12.036 215.075 12.252 214.859C12.468 214.667 12.84 214.571 13.368 214.571C14.688 214.547 16.668 214.535 19.308 214.535L22.368 214.607C23.4 214.631 24.672 214.655 26.184 214.679C27.696 214.703 29.46 214.715 31.476 214.715C32.22 214.715 33.288 214.643 34.68 214.499L34.86 214.499C35.196 214.499 35.424 214.547 35.544 214.643C35.688 214.739 35.76 214.907 35.76 215.147C35.76 215.459 35.664 215.699 35.472 215.867C35.304 216.059 35.064 216.143 34.752 216.119C31.728 216.071 29.472 216.023 27.984 215.975C26.904 215.903 25.86 215.867 24.852 215.867L24.852 216.767C24.804 218.063 24.264 219.035 23.232 219.683C21.912 220.499 20.484 220.907 18.948 220.907C17.7 220.907 16.572 220.703 15.564 220.295C14.58 219.911 13.692 219.299 12.9 218.459C12.252 217.811 11.928 216.959 11.928 215.903ZM13.368 215.975C13.344 216.479 13.476 216.995 13.764 217.523C14.076 218.051 14.448 218.447 14.88 218.711C16.104 219.431 17.388 219.791 18.732 219.791C20.172 219.791 21.36 219.491 22.296 218.891C23.256 218.315 23.724 217.307 23.7 215.867C22.62 215.795 21.552 215.759 20.496 215.759C19.44 215.759 17.856 215.807 15.744 215.903C15.216 215.903 14.424 215.927 13.368 215.975Z" fill="#A21414"/>
<path d="M27.771 25.4609V23.8008C29.4734 22.8344 30.6234 21.0086 30.6234 18.9109C30.6234 15.8055 28.1054 13.2875 24.9999 13.2875C21.8945 13.2875 19.3765 15.8055 19.3765 18.9109C19.3765 21.0086 20.5273 22.8344 22.2288 23.8008V25.4609C16.9882 25.7063 14.3234 29.2492 14.3234 31.6313C14.3234 33.4242 14.3234 33.5875 14.3234 33.5875H24.9999H35.6765C35.6765 33.5875 35.6765 33.4242 35.6765 31.6313C35.6765 29.25 33.0116 25.7063 27.771 25.4609Z" fill="#A21414"/>
<path d="M25.3539 7.93828C34.4867 8.12344 41.8773 15.5141 42.0625 24.6469H50C49.8133 11.1367 38.8633 0.186719 25.3539 0V7.93828Z" fill="#A21414"/>
<path d="M42.0617 25.3445C41.8742 34.5938 34.2976 42.0617 25.0039 42.0617C21.4586 42.0617 18.1633 40.9742 15.4312 39.1164L10.4828 45.3313C14.5804 48.2656 19.5922 50 25.0047 50C38.675 50 49.8117 38.9711 50 25.3445H42.0617Z" fill="#A21414"/>
<path d="M9.91875 44.9203L14.8625 38.7117C10.6648 35.6 7.93828 30.6109 7.93828 24.9961C7.93828 15.7031 15.4062 8.12578 24.6555 7.93828V0C11.0289 0.188281 0 11.325 0 24.9953C0 33.1203 3.89766 40.35 9.91875 44.9203Z" fill="#A21414"/>
</svg>
