<svg width="61" height="222" viewBox="0 0 61 222" fill="none" xmlns="http://www.w3.org/2000/svg">
<path d="M22.748 164.256C22.892 163.8 23.096 163.404 23.36 163.068C23.624 162.756 24.02 162.456 24.548 162.168C25.508 161.664 26.888 161.364 28.688 161.268C29.504 161.22 30.224 161.196 30.848 161.196L34.952 161.196C36.512 161.196 38.024 161.244 39.488 161.34C40.568 161.412 41.48 161.52 42.224 161.664C42.968 161.808 43.712 162.036 44.456 162.348C45.224 162.684 45.764 163.056 46.076 163.464C46.22 163.632 46.388 163.956 46.58 164.436C46.7 164.748 46.832 165.048 46.976 165.336L46.976 166.776L46.976 166.884C46.952 166.908 46.94 166.944 46.94 166.992L46.904 167.172L46.796 167.316C46.724 167.388 46.676 167.424 46.652 167.424C46.604 167.448 46.532 167.46 46.436 167.46L45.896 166.992L45.896 165.48C45.896 165.024 45.668 164.604 45.212 164.22C44.78 163.86 44.228 163.584 43.556 163.392C42.956 163.2 42.248 163.044 41.432 162.924C40.616 162.804 39.908 162.732 39.308 162.708C38.54 162.66 38.012 162.636 37.724 162.636L37.544 162.564C36.2 162.564 34.988 162.54 33.908 162.492L30.272 162.42C29.216 162.42 28.244 162.492 27.356 162.636C26.396 162.756 25.532 163.104 24.764 163.68C23.996 164.232 23.612 165.084 23.612 166.236C23.612 166.596 23.72 166.896 23.936 167.136C23.936 167.496 23.804 167.676 23.54 167.676C23.372 167.676 23.18 167.52 22.964 167.208C22.724 166.92 22.544 166.62 22.424 166.308L22.424 165.12L22.748 164.256ZM22.604 172.434C22.604 172.242 22.676 172.074 22.82 171.93C22.964 171.81 23.144 171.75 23.36 171.75L24.476 171.714C25.34 171.714 26.612 171.786 28.292 171.93C30.164 172.05 31.424 172.11 32.072 172.11L33.692 172.074C34.172 172.05 34.7 172.038 35.276 172.038C36.236 172.038 37.664 172.074 39.56 172.146C41.504 172.218 42.944 172.254 43.88 172.254L45.968 172.218L46.148 172.074L46.364 172.074C46.988 172.074 47.3 172.326 47.3 172.83C47.3 173.214 47.144 173.838 46.832 174.702C46.544 175.59 46.304 176.034 46.112 176.034L46.004 176.034C45.308 176.466 44.612 176.754 43.916 176.898C43.22 177.066 42.332 177.15 41.252 177.15C39.5 177.15 38.072 176.958 36.968 176.574L36.968 176.61C36.776 176.514 36.464 176.322 36.032 176.034L35.276 175.53C34.94 175.962 34.448 176.322 33.8 176.61C33.152 176.922 32.528 177.114 31.928 177.186C31.712 177.21 31.448 177.234 31.136 177.258C30.824 177.282 30.452 177.306 30.02 177.33L29.084 177.366L28.58 177.366C26.276 177.366 24.572 176.646 23.468 175.206C22.892 174.462 22.604 173.538 22.604 172.434ZM35.996 173.55C35.996 175.134 37.592 175.926 40.784 175.926C41.048 175.926 41.564 175.902 42.332 175.854L43.016 175.818L43.088 175.746C43.88 175.65 44.504 175.518 44.96 175.35C45.296 175.23 45.56 175.038 45.752 174.774C45.968 174.51 46.076 174.222 46.076 173.91C46.076 173.382 44.504 173.118 41.36 173.118C40.76 173.118 40.352 173.13 40.136 173.154L39.416 173.154L38.192 173.154C37.808 173.13 37.376 173.118 36.896 173.118L36.464 173.118C36.464 173.118 36.392 173.142 36.248 173.19L35.996 173.262L35.996 173.55ZM24.008 173.01C24.008 173.586 24.2 174.114 24.584 174.594C24.968 175.098 25.46 175.494 26.06 175.782C26.684 176.07 27.296 176.214 27.896 176.214L28.04 176.25L28.328 176.25L28.724 176.25C29.732 176.25 30.692 176.166 31.604 175.998C32.828 175.734 33.716 175.266 34.268 174.594C34.58 174.21 34.736 173.754 34.736 173.226C32.744 173.106 31.112 173.046 29.84 173.046L29.012 173.046C28.316 173.046 27.764 173.082 27.356 173.154C27.14 173.034 26.564 172.974 25.628 172.974L24.692 172.974L24.008 173.01ZM22.64 187.165C22.64 186.949 22.7 186.769 22.82 186.625C22.94 186.481 23.108 186.421 23.324 186.445C25.196 186.493 26.588 186.541 27.5 186.589L29.516 186.661L34.988 186.337C34.964 186.217 34.94 186.061 34.916 185.869C34.892 185.701 34.856 185.581 34.808 185.509C34.736 185.413 34.628 185.257 34.484 185.041C34.364 184.825 34.256 184.645 34.16 184.501C34.064 184.381 33.92 184.285 33.728 184.213C33.536 184.141 33.272 184.033 32.936 183.889C32.6 183.745 32.288 183.625 32 183.529C31.736 183.457 31.448 183.421 31.136 183.421L29.156 183.385L27.176 183.421C26.336 183.397 25.484 183.229 24.62 182.917C23.78 182.629 23.276 182.233 23.108 181.729C23.084 181.657 23.072 181.549 23.072 181.405C23.072 181.213 23.144 181.009 23.288 180.793C23.432 180.601 23.6 180.505 23.792 180.505C23.984 180.505 24.152 180.625 24.296 180.865C24.416 181.057 24.548 181.201 24.692 181.297C24.86 181.417 25.064 181.513 25.304 181.585C26.24 181.897 27.2 182.053 28.184 182.053C29.384 182.053 30.356 182.089 31.1 182.161C31.868 182.257 32.684 182.461 33.548 182.773C33.812 182.869 34.208 183.085 34.736 183.421L35.42 183.853C35.996 183.085 36.56 182.509 37.112 182.125C37.664 181.741 38.348 181.549 39.164 181.549C39.332 181.549 39.584 181.573 39.92 181.621C40.352 181.669 40.724 181.693 41.036 181.693C41.372 181.717 41.648 181.729 41.864 181.729C43.736 181.849 45.2 182.629 46.256 184.069C46.832 184.885 47.12 185.737 47.12 186.625C47.12 187.057 47.024 187.345 46.832 187.489C46.64 187.657 46.328 187.717 45.896 187.669C44.936 187.525 43.736 187.453 42.296 187.453L38.876 187.453C37.34 187.453 36.188 187.465 35.42 187.489C34.316 187.489 33.236 187.525 32.18 187.597C31.076 187.645 30.272 187.669 29.768 187.669L28.04 187.669L24.656 187.669C24.392 187.669 24.164 187.681 23.972 187.705C23.78 187.729 23.612 187.753 23.468 187.777L23.36 187.777C23.168 187.777 23.012 187.729 22.892 187.633C22.748 187.537 22.664 187.405 22.64 187.237L22.64 187.165ZM36.5 184.501C36.308 184.837 36.212 185.161 36.212 185.473C36.212 185.785 36.308 186.073 36.5 186.337L45.896 186.373L45.608 185.689C45.44 185.257 45.284 184.957 45.14 184.789C44.372 183.925 43.472 183.385 42.44 183.169C41.768 183.025 40.952 182.953 39.992 182.953C39.392 182.953 38.948 182.965 38.66 182.989C37.628 183.157 36.908 183.661 36.5 184.501ZM22.784 195.583C22.784 194.911 22.952 194.335 23.288 193.855C23.648 193.375 24.08 193.135 24.584 193.135C24.704 193.135 24.86 193.159 25.052 193.207C25.148 193.231 25.244 193.279 25.34 193.351C25.436 193.423 25.496 193.507 25.52 193.603C25.52 193.771 25.424 193.951 25.232 194.143C25.112 194.239 24.92 194.347 24.656 194.467C24.392 194.587 24.2 194.719 24.08 194.863C23.96 195.007 23.9 195.247 23.9 195.583C23.9 195.919 24.008 196.207 24.224 196.447C24.752 197.143 25.412 197.575 26.204 197.743C27.284 197.983 28.244 198.103 29.084 198.103C29.996 198.103 30.812 197.971 31.532 197.707C32.18 197.467 32.708 197.203 33.116 196.915C33.548 196.651 33.8 196.291 33.872 195.835C33.92 195.571 33.992 195.355 34.088 195.187C34.184 195.019 34.376 194.899 34.664 194.827C34.736 194.899 34.868 195.007 35.06 195.151C35.252 195.319 35.372 195.487 35.42 195.655C35.564 196.135 35.804 196.495 36.14 196.735C36.5 196.975 36.944 197.155 37.472 197.275C38.144 197.419 38.648 197.491 38.984 197.491L41.648 197.527C42.296 197.527 42.884 197.491 43.412 197.419C43.94 197.347 44.564 197.215 45.284 197.023C45.62 196.927 45.848 196.759 45.968 196.519C46.088 196.303 46.172 196.003 46.22 195.619C46.244 195.187 46.076 194.743 45.716 194.287C45.38 193.831 45.008 193.543 44.6 193.423L43.736 193.171C43.808 192.787 43.88 192.523 43.952 192.379C44.024 192.259 44.144 192.199 44.312 192.199C44.432 192.199 44.612 192.235 44.852 192.307C45.092 192.355 45.368 192.427 45.68 192.523C46.016 192.619 46.22 192.739 46.292 192.883C46.604 193.387 46.844 193.855 47.012 194.287C47.18 194.719 47.264 195.175 47.264 195.655C47.264 197.191 46.376 198.127 44.6 198.463C43.784 198.559 43.16 198.607 42.728 198.607C41.528 198.607 39.68 198.535 37.184 198.391C36.32 198.319 35.468 197.887 34.628 197.095C33.788 198.055 32.588 198.727 31.028 199.111C30.572 199.207 30.008 199.255 29.336 199.255C28.568 199.255 27.8 199.195 27.032 199.075C26.264 198.955 25.664 198.799 25.232 198.607C23.6 197.935 22.784 196.927 22.784 195.583ZM22.676 210.45C22.676 210.09 22.724 209.862 22.82 209.766C22.892 209.67 23.108 209.598 23.468 209.55C25.22 209.334 26.312 209.202 26.744 209.154L28.184 208.974C28.304 208.446 28.364 207.846 28.364 207.174L28.436 205.878C28.508 205.302 28.544 204.882 28.544 204.618C28.544 204.474 28.484 204.39 28.364 204.366C28.292 204.366 28.256 204.354 28.256 204.33L27.536 204.258C27.104 204.234 26.24 204.102 24.944 203.862C24.296 203.742 23.792 203.598 23.432 203.43C23.024 203.238 22.82 203.058 22.82 202.89C22.82 202.746 22.88 202.59 23 202.422C23.144 202.254 23.288 202.17 23.432 202.17L23.54 202.206L23.648 202.242C25.352 202.674 27.044 203.034 28.724 203.322L30.956 203.754L33.692 204.186C33.692 204.186 34.484 204.318 36.068 204.582C36.716 204.702 37.76 204.918 39.2 205.23C40.832 205.566 41.948 205.77 42.548 205.842C42.62 205.866 43.064 205.914 43.88 205.986C44.792 206.082 45.464 206.166 45.896 206.238C46.52 206.31 46.88 206.382 46.976 206.454L46.976 206.706C46.952 206.778 46.94 206.862 46.94 206.958C46.94 207.246 47.012 207.462 47.156 207.606C47.156 207.774 47.096 207.918 46.976 208.038C46.88 208.182 46.76 208.254 46.616 208.254C45.464 208.254 44.144 208.338 42.656 208.506C41.888 208.602 41.252 208.674 40.748 208.722C37.652 208.986 31.844 209.658 23.324 210.738L23.216 210.738C22.976 210.738 22.796 210.642 22.676 210.45ZM29.156 208.794C32.612 208.554 37.712 208.098 44.456 207.426L34.844 205.482C32.084 204.93 30.344 204.654 29.624 204.654C29.504 204.654 29.396 205.11 29.3 206.022C29.204 206.934 29.156 207.738 29.156 208.434L29.156 208.794ZM22.928 215.903C22.928 215.423 23.036 215.075 23.252 214.859C23.468 214.667 23.84 214.571 24.368 214.571C25.688 214.547 27.668 214.535 30.308 214.535L33.368 214.607C34.4 214.631 35.672 214.655 37.184 214.679C38.696 214.703 40.46 214.715 42.476 214.715C43.22 214.715 44.288 214.643 45.68 214.499L45.86 214.499C46.196 214.499 46.424 214.547 46.544 214.643C46.688 214.739 46.76 214.907 46.76 215.147C46.76 215.459 46.664 215.699 46.472 215.867C46.304 216.059 46.064 216.143 45.752 216.119C42.728 216.071 40.472 216.023 38.984 215.975C37.904 215.903 36.86 215.867 35.852 215.867L35.852 216.767C35.804 218.063 35.264 219.035 34.232 219.683C32.912 220.499 31.484 220.907 29.948 220.907C28.7 220.907 27.572 220.703 26.564 220.295C25.58 219.911 24.692 219.299 23.9 218.459C23.252 217.811 22.928 216.959 22.928 215.903ZM24.368 215.975C24.344 216.479 24.476 216.995 24.764 217.523C25.076 218.051 25.448 218.447 25.88 218.711C27.104 219.431 28.388 219.791 29.732 219.791C31.172 219.791 32.36 219.491 33.296 218.891C34.256 218.315 34.724 217.307 34.7 215.867C33.62 215.795 32.552 215.759 31.496 215.759C30.44 215.759 28.856 215.807 26.744 215.903C26.216 215.903 25.424 215.927 24.368 215.975Z" fill="white"/>
<rect x="35" y="92" width="4" height="20" fill="#E2E2E2"/>
<path d="M35 122H39V142H35V122Z" fill="#E2E2E2"/>
<path d="M38.4142 60.5858C37.6332 59.8047 36.3668 59.8047 35.5858 60.5858L22.8579 73.3137C22.0768 74.0948 22.0768 75.3611 22.8579 76.1421C23.6389 76.9232 24.9052 76.9232 25.6863 76.1421L37 64.8284L48.3137 76.1421C49.0948 76.9232 50.3611 76.9232 51.1421 76.1421C51.9232 75.3611 51.9232 74.0948 51.1421 73.3137L38.4142 60.5858ZM39 82L39 62L35 62L35 82L39 82Z" fill="#E2E2E2"/>
<path d="M38.771 25.4609V23.8008C40.4734 22.8344 41.6234 21.0086 41.6234 18.9109C41.6234 15.8055 39.1054 13.2875 35.9999 13.2875C32.8945 13.2875 30.3765 15.8055 30.3765 18.9109C30.3765 21.0086 31.5273 22.8344 33.2288 23.8008V25.4609C27.9882 25.7063 25.3234 29.2492 25.3234 31.6313C25.3234 33.4242 25.3234 33.5875 25.3234 33.5875H35.9999H46.6765C46.6765 33.5875 46.6765 33.4242 46.6765 31.6313C46.6765 29.25 44.0116 25.7063 38.771 25.4609Z" fill="#E5E5E5"/>
<path d="M36.3539 7.93828C45.4867 8.12344 52.8773 15.5141 53.0625 24.6469H61C60.8133 11.1367 49.8633 0.186719 36.3539 0V7.93828Z" fill="#E5E5E5"/>
<path d="M53.0617 25.3445C52.8742 34.5938 45.2976 42.0617 36.0039 42.0617C32.4586 42.0617 29.1633 40.9742 26.4312 39.1164L21.4828 45.3313C25.5804 48.2656 30.5922 50 36.0047 50C49.675 50 60.8117 38.9711 61 25.3445H53.0617Z" fill="#E5E5E5"/>
<path d="M20.9187 44.9203L25.8625 38.7117C21.6648 35.6 18.9383 30.6109 18.9383 24.9961C18.9383 15.7031 26.4062 8.12578 35.6555 7.93828V0C22.0289 0.188281 11 11.325 11 24.9953C11 33.1203 14.8977 40.35 20.9187 44.9203Z" fill="#E5E5E5"/>
</svg>
