<svg width="50" height="50" viewBox="0 0 50 50" fill="none" xmlns="http://www.w3.org/2000/svg">
<path d="M27.771 25.461V23.8009C29.4734 22.8345 30.6234 21.0087 30.6234 18.911C30.6234 15.8056 28.1054 13.2876 24.9999 13.2876C21.8945 13.2876 19.3765 15.8056 19.3765 18.911C19.3765 21.0087 20.5273 22.8345 22.2288 23.8009V25.461C16.9882 25.7063 14.3234 29.2493 14.3234 31.6313C14.3234 33.4243 14.3234 33.5876 14.3234 33.5876H24.9999H35.6765C35.6765 33.5876 35.6765 33.4243 35.6765 31.6313C35.6765 29.2501 33.0116 25.7063 27.771 25.461Z" fill="#A21414"/>
<path d="M25.3539 7.93828C34.4867 8.12344 41.8773 15.5141 42.0625 24.6469H50C49.8133 11.1367 38.8633 0.186719 25.3539 0V7.93828Z" fill="#A21414"/>
<path d="M42.0617 25.3445C41.8742 34.5937 34.2976 42.0617 25.0039 42.0617C21.4586 42.0617 18.1633 40.9742 15.4312 39.1164L10.4828 45.3312C14.5804 48.2656 19.5922 49.9999 25.0047 49.9999C38.675 49.9999 49.8117 38.971 50 25.3445H42.0617Z" fill="#A21414"/>
<path d="M9.91875 44.9203L14.8625 38.7117C10.6648 35.6 7.93828 30.6109 7.93828 24.9961C7.93828 15.7031 15.4062 8.12578 24.6555 7.93828V0C11.0289 0.188281 0 11.325 0 24.9953C0 33.1203 3.89766 40.35 9.91875 44.9203Z" fill="#A21414"/>
</svg>
