<svg width="40" height="40" viewBox="0 0 40 40" fill="none" xmlns="http://www.w3.org/2000/svg">
<path fill-rule="evenodd" clip-rule="evenodd" d="M7.45801 1.2766L38.7234 32.542C40.4255 34.2441 40.4255 37.0213 38.7234 38.7234C37.0213 40.4255 34.2441 40.4255 32.542 38.7234L1.2766 7.45801C-0.425532 5.75588 -0.425532 2.97872 1.2766 1.2766C2.97872 -0.425532 5.75588 -0.425532 7.45801 1.2766Z" fill="#A21414"/>
<path fill-rule="evenodd" clip-rule="evenodd" d="M32.542 1.2766L1.2766 32.542C-0.425532 34.2441 -0.425532 37.0213 1.2766 38.7234C2.97872 40.4255 5.75588 40.4255 7.45801 38.7234L38.7234 7.45801C40.4255 5.75588 40.4255 2.97872 38.7234 1.2766C37.0213 -0.425532 34.2441 -0.425532 32.542 1.2766Z" fill="#A21414"/>
</svg>
