<svg width="50" height="50" viewBox="0 0 50 50" fill="none" xmlns="http://www.w3.org/2000/svg">
<path d="M20.2148 25C20.2148 27.6428 22.3572 29.7852 25 29.7852C27.6428 29.7852 29.7852 27.6428 29.7852 25C29.7852 22.3572 27.6428 20.2148 25 20.2148C22.3572 20.2148 20.2148 22.3572 20.2148 25Z" fill="#A21414"/>
<path d="M13.8091 16.5337C14.0392 15.9104 14.4061 15.3462 14.883 14.8831C15.3461 14.4062 15.9099 14.0392 16.5336 13.8092C17.0394 13.6128 17.7993 13.3789 19.1989 13.3152C20.713 13.2462 21.1669 13.2313 24.9999 13.2313C28.8333 13.2313 29.2873 13.2458 30.8009 13.3148C32.2006 13.3789 32.9608 13.6128 33.4663 13.8092C34.09 14.0392 34.6542 14.4062 35.1169 14.8831C35.5937 15.3462 35.9607 15.91 36.1911 16.5337C36.3876 17.0395 36.6214 17.7998 36.6851 19.1994C36.7542 20.7131 36.769 21.167 36.769 25.0004C36.769 28.8334 36.7542 29.2874 36.6851 30.8014C36.6214 32.201 36.3876 32.9609 36.1911 33.4667C35.9607 34.0904 35.5941 34.6542 35.1173 35.1174C34.6542 35.5942 34.0904 35.9612 33.4667 36.1912C32.9608 36.388 32.2006 36.6219 30.8009 36.6856C29.2873 36.7546 28.8337 36.7691 25.0003 36.7691C21.1665 36.7691 20.7126 36.7546 19.1993 36.6856C17.7997 36.6219 17.0394 36.388 16.5336 36.1912C15.2816 35.7083 14.2921 34.7187 13.8091 33.4667C13.6127 32.9609 13.3788 32.201 13.3148 30.8014C13.2457 29.2874 13.2312 28.8334 13.2312 25.0004C13.2312 21.167 13.2457 20.7131 13.3148 19.1994C13.3785 17.7998 13.6123 17.0395 13.8091 16.5337ZM24.9999 32.3715C29.0714 32.3715 32.3718 29.0714 32.3718 25C32.3718 20.9286 29.0714 17.6285 24.9999 17.6285C20.9289 17.6285 17.6284 20.9286 17.6284 25C17.6284 29.0714 20.9289 32.3715 24.9999 32.3715ZM17.337 19.0598C18.2884 19.0598 19.0597 18.2884 19.0597 17.3371C19.0597 16.3857 18.2884 15.6143 17.337 15.6143C16.3856 15.6143 15.6143 16.3857 15.6143 17.3371C15.6146 18.2884 16.3856 19.0598 17.337 19.0598Z" fill="#A21414"/>
<path d="M25 0C38.805 0 50 11.195 50 25C50 38.805 38.805 50 25 50C11.195 50 0 38.805 0 25C0 11.195 11.195 0 25 0ZM10.7311 30.9185C10.8006 32.4467 11.0435 33.49 11.3983 34.4032C12.1441 36.3316 13.6684 37.8559 15.5968 38.6017C16.5096 38.9565 17.5533 39.1991 19.0811 39.2689C20.612 39.3387 21.101 39.3555 24.9996 39.3555C28.8986 39.3555 29.3873 39.3387 30.9185 39.2689C32.4463 39.1991 33.49 38.9565 34.4028 38.6017C35.3611 38.2412 36.2286 37.6762 36.9457 36.9457C37.6759 36.2289 38.2408 35.3611 38.6013 34.4032C38.9561 33.4904 39.1991 32.4467 39.2685 30.9189C39.3391 29.3877 39.3555 28.8986 39.3555 25C39.3555 21.1014 39.3391 20.6123 39.2689 19.0815C39.1994 17.5533 38.9568 16.51 38.6021 15.5968C38.2416 14.6389 37.6762 13.7711 36.9457 13.0543C36.2289 12.3238 35.3611 11.7588 34.4032 11.3983C33.49 11.0435 32.4467 10.8009 30.9185 10.7311C29.3877 10.6613 28.8986 10.6445 25 10.6445C21.1014 10.6445 20.6123 10.6613 19.0815 10.7315C17.5533 10.8009 16.51 11.0435 15.5968 11.3979C14.6389 11.7584 13.7711 12.3238 13.0539 13.0543C12.3238 13.7714 11.7584 14.6389 11.3983 15.5968C11.0432 16.51 10.8006 17.5533 10.7307 19.0815C10.6609 20.6123 10.6445 21.1014 10.6445 25C10.6445 28.8986 10.6609 29.3877 10.7311 30.9185Z" fill="#A21414"/>
</svg>
