<svg width="50" height="50" viewBox="0 0 50 50" fill="none" xmlns="http://www.w3.org/2000/svg">
<path d="M29.031 49.6746C28.8227 49.7085 28.6137 49.7398 28.4039 49.7684C28.6137 49.7398 28.8227 49.7085 29.031 49.6746Z" fill="#E5E5E5"/>
<path d="M29.5311 49.5891C29.4315 49.6075 29.3319 49.6242 29.2324 49.6414C29.3319 49.6242 29.4315 49.6075 29.5311 49.5891Z" fill="#E5E5E5"/>
<path d="M27.8454 49.8379C27.6016 49.8653 27.3563 49.8897 27.1103 49.9103C27.3563 49.8897 27.6016 49.8653 27.8454 49.8379Z" fill="#E5E5E5"/>
<path d="M28.3256 49.7791C28.2085 49.7942 28.0906 49.8081 27.9731 49.8213C28.0906 49.8081 28.2085 49.7942 28.3256 49.7791Z" fill="#E5E5E5"/>
<path d="M30.2116 49.4541C30.1239 49.4728 30.0358 49.4915 29.9476 49.5094C30.0358 49.4915 30.1239 49.4728 30.2116 49.4541Z" fill="#E5E5E5"/>
<path d="M31.9008 49.0345C31.8298 49.0547 31.7589 49.0738 31.6879 49.0936C31.7589 49.0738 31.8298 49.0547 31.9008 49.0345Z" fill="#E5E5E5"/>
<path d="M31.39 49.1741C31.3129 49.1943 31.2355 49.2149 31.158 49.2344C31.2355 49.2149 31.3129 49.1947 31.39 49.1741Z" fill="#E5E5E5"/>
<path d="M30.7217 49.3412C30.6401 49.3603 30.5577 49.3782 30.4753 49.3965C30.5577 49.3782 30.6401 49.3603 30.7217 49.3412Z" fill="#E5E5E5"/>
<path d="M27.1023 49.9111C26.9707 49.9217 26.8391 49.9313 26.7071 49.9397C26.8391 49.9313 26.9707 49.9217 27.1023 49.9111Z" fill="#E5E5E5"/>
<path d="M50 25C50 11.195 38.805 0 25 0C11.195 0 0 11.195 0 25C0 38.805 11.195 50 25 50C25.1469 50 25.293 49.9969 25.4395 49.9943V30.5328H20.0684V24.2733H25.4395V19.6671C25.4395 14.325 28.7006 11.4174 33.466 11.4174C35.7479 11.4174 37.7094 11.5875 38.2812 11.6634V17.2466H34.9953C32.4028 17.2466 31.9008 18.4788 31.9008 20.2866V24.2733H38.0997L37.2917 30.5328H31.9008V49.0341C42.3504 46.0384 50 36.4113 50 25Z" fill="#E5E5E5"/>
<path d="M26.6518 49.9443C26.3916 49.9604 26.1303 49.9733 25.8682 49.9817C26.1303 49.9733 26.3916 49.9604 26.6518 49.9443Z" fill="#E5E5E5"/>
<path d="M25.8549 49.984C25.7168 49.9886 25.5784 49.992 25.4399 49.9943C25.5784 49.992 25.7168 49.9886 25.8549 49.984Z" fill="#E5E5E5"/>
</svg>
