<svg width="45" height="216" viewBox="0 0 45 216" fill="none" xmlns="http://www.w3.org/2000/svg">
<path d="M36.936 203.472C36.936 203.712 36.816 203.904 36.576 204.048C36.336 204.192 35.988 204.264 35.532 204.264L30.204 204.3C29.748 204.324 28.992 204.336 27.936 204.336C25.704 204.384 23.184 204.408 20.376 204.408L18.54 204.408C19.692 204.624 21.312 204.996 23.4 205.524C25.56 206.052 27.336 206.424 28.728 206.64L28.944 206.64L29.628 206.748C30.156 206.796 30.696 206.916 31.248 207.108C31.824 207.348 32.112 207.72 32.112 208.224C32.112 209.088 30.984 209.52 28.728 209.52C27.48 209.52 26.148 209.652 24.732 209.916C23.292 210.156 21.528 210.552 19.44 211.104L15.408 212.184L19.728 212.256C21.024 212.256 23.496 212.196 27.144 212.076L29.592 212.004L34.524 211.932C35.028 211.932 35.484 212.112 35.892 212.472C35.892 213.072 35.712 213.492 35.352 213.732C34.968 213.948 34.416 214.056 33.696 214.056L30.744 213.984C29.448 213.912 28.476 213.876 27.828 213.876L20.88 213.948L13.896 214.02C12.864 214.02 11.316 213.996 9.252 213.948L8.676 212.976C8.7 212.784 8.844 212.592 9.108 212.4C9.348 212.208 9.744 211.992 10.296 211.752C11.784 211.152 14.76 210.372 19.224 209.412C19.848 209.268 20.364 209.172 20.772 209.124C22.164 208.836 23.22 208.632 23.94 208.512L26.712 207.972L25.524 207.72L22.572 207.036C20.844 206.652 19.332 206.34 18.036 206.1C16.74 205.836 15.336 205.584 13.824 205.344C12.024 205.08 10.524 204.912 9.324 204.84L9.108 204.84C8.796 204.792 8.556 204.648 8.388 204.408C8.196 204.168 8.1 203.88 8.1 203.544C8.1 203.328 8.196 203.136 8.388 202.968C8.58 202.8 8.784 202.716 9 202.716C11.88 202.716 16.188 202.608 21.924 202.392C24.732 202.272 27.48 202.188 30.168 202.14C31.392 202.092 32.94 202.068 34.812 202.068C35.364 202.068 35.856 202.212 36.288 202.5C36.72 202.788 36.936 203.112 36.936 203.472ZM36.468 195.836C36.468 196.148 36.36 196.436 36.144 196.7C35.928 196.94 35.664 197.072 35.352 197.096L34.416 197.096L33.696 197.096C33.48 197.12 33.228 197.132 32.94 197.132C32.436 197.132 31.668 197.168 30.636 197.24L28.332 197.312C27.156 197.312 25.404 197.276 23.076 197.204C20.988 197.108 19.236 197.059 17.82 197.059C17.484 197.059 16.98 197.096 16.308 197.168C15.612 197.24 15.108 197.276 14.796 197.276C13.092 197.276 12.24 196.772 12.24 195.763C12.24 194.971 12.396 194.06 12.708 193.028C13.02 191.971 13.392 191.443 13.824 191.443C14.064 191.443 14.292 191.551 14.508 191.767C14.7 191.959 14.856 192.199 14.976 192.488C14.616 193.495 14.376 194.407 14.256 195.223C14.616 195.2 15.132 195.188 15.804 195.188C16.764 195.188 17.628 195.2 18.396 195.224C19.548 195.296 20.412 195.331 20.988 195.332L21.564 195.224L21.528 194.648C21.504 194.456 21.492 194.216 21.492 193.927C21.492 192.776 21.828 192.2 22.5 192.2C22.764 192.2 22.992 192.307 23.184 192.523C23.352 192.739 23.436 193.015 23.436 193.351C23.436 193.783 23.412 194.12 23.364 194.36L23.364 195.26C23.988 195.212 24.9 195.188 26.1 195.188C27.3 195.188 28.38 195.2 29.34 195.224C30.804 195.296 31.896 195.332 32.616 195.332C33.96 195.332 34.632 195.308 34.632 195.26L34.596 194.072C34.572 193.664 34.56 193.172 34.56 192.595C34.56 191.683 34.848 191.227 35.424 191.227C35.76 191.227 36.012 191.383 36.18 191.695C36.372 191.984 36.468 192.344 36.468 192.776L36.468 195.836ZM36 180.925C36 181.741 34.02 182.149 30.06 182.149L28.008 182.113L26.352 182.077L26.244 182.077L25.884 182.077C25.692 182.053 25.464 182.041 25.2 182.041C25.152 182.041 25.092 182.077 25.02 182.149C24.948 182.221 24.888 182.257 24.84 182.257L24.804 182.257C24.852 182.377 24.876 182.593 24.876 182.905C24.876 183.217 24.828 183.601 24.732 184.057C24.708 184.201 24.648 184.585 24.552 185.209L28.692 185.209C29.316 185.209 30.3 185.173 31.644 185.101C32.964 185.029 33.948 184.993 34.596 184.993C34.956 184.993 35.268 185.089 35.532 185.281C35.796 185.473 35.928 185.725 35.928 186.037C35.928 186.493 35.484 186.817 34.596 187.009C33.684 187.201 32.496 187.297 31.032 187.297L28.116 187.225C27.3 187.201 26.436 187.189 25.524 187.189L24.912 187.189L24.408 187.189C24.024 187.189 23.772 187.201 23.652 187.225L23.472 187.225L21.384 187.117C20.472 187.117 19.116 187.153 17.316 187.225C15.516 187.297 14.16 187.333 13.248 187.333C12.96 187.333 12.708 187.237 12.492 187.045C12.276 186.853 12.168 186.613 12.168 186.325C12.168 185.557 12.888 185.173 14.328 185.173L18.792 185.245C20.136 185.293 21.636 185.317 23.292 185.317C23.412 184.957 23.472 184.309 23.472 183.373L23.472 182.041C23.328 181.993 23.184 181.969 23.04 181.969C21.888 181.969 20.184 182.041 17.928 182.185C15.816 182.353 14.1 182.437 12.78 182.437C12.516 182.437 12.3 182.341 12.132 182.149C11.94 181.933 11.844 181.681 11.844 181.393C11.844 181.225 11.904 180.985 12.024 180.673L12.168 180.349C15.576 180.349 20.124 180.229 25.812 179.989L34.92 179.665C35.256 179.665 35.52 179.797 35.712 180.061C35.904 180.301 36 180.589 36 180.925ZM36.252 166.235C36.252 166.811 36.072 167.363 35.712 167.891C35.352 168.419 34.836 168.851 34.164 169.187C33.588 169.475 32.976 169.679 32.328 169.799C31.656 169.895 30.84 169.979 29.88 170.051L25.452 170.375L25.452 173.471L28.98 173.471L30.42 173.471L34.848 173.111C35.256 173.063 35.544 173.123 35.712 173.291C35.88 173.435 35.964 173.735 35.964 174.191C35.964 174.527 35.916 174.767 35.82 174.911C35.724 175.055 35.544 175.151 35.28 175.199C34.896 175.247 34.308 175.271 33.516 175.271L30.78 175.307C28.38 175.355 26.568 175.379 25.344 175.379C24.36 175.379 23.628 175.367 23.148 175.343L20.88 175.307C20.304 175.307 19.296 175.331 17.856 175.379L15.228 175.415C14.94 175.415 14.508 175.391 13.932 175.343L12.672 175.307C12.36 175.307 12.156 175.247 12.06 175.127C11.964 174.983 11.916 174.719 11.916 174.335C11.916 173.951 12.036 173.639 12.276 173.399C12.492 173.135 12.768 173.027 13.104 173.075C13.56 173.147 14.04 173.183 14.544 173.183C15.048 173.183 15.432 173.171 15.696 173.147L16.884 173.111C18.084 173.111 19.236 173.159 20.34 173.255C21.492 173.351 22.752 173.399 24.12 173.399C24.168 173.015 24.192 172.727 24.192 172.535C24.192 172.103 24.096 171.383 23.904 170.375C22.512 170.303 20.952 170.171 19.224 169.979C17.448 169.787 15.876 169.559 14.508 169.295C14.004 169.199 13.356 168.911 12.564 168.431C12.324 168.311 12.144 168.119 12.024 167.855C11.904 167.591 11.844 167.303 11.844 166.991C11.844 166.559 12.024 165.983 12.384 165.263C12.744 164.519 13.152 163.931 13.608 163.499C14.424 162.755 15.456 162.167 16.704 161.735C17.952 161.279 19.332 161.051 20.844 161.051C21.588 161.051 22.284 161.099 22.932 161.195C23.628 161.291 24.684 161.339 26.1 161.339C27.396 161.339 28.368 161.375 29.016 161.447C31.104 161.663 32.88 162.179 34.344 162.995C34.944 163.307 35.412 163.775 35.748 164.399C36.084 165.023 36.252 165.635 36.252 166.235ZM34.812 166.235C34.812 165.779 34.596 165.407 34.164 165.119C32.844 164.471 31.68 164.027 30.672 163.787C29.664 163.523 28.332 163.379 26.676 163.355C24.516 163.259 22.716 163.211 21.276 163.211L19.728 163.247C18.288 163.295 16.92 163.523 15.624 163.931C15.216 164.051 14.808 164.279 14.4 164.615C13.968 164.927 13.62 165.275 13.356 165.659C13.116 166.019 12.996 166.319 12.996 166.559C12.996 166.751 13.08 166.895 13.248 166.991C13.416 167.087 13.68 167.183 14.04 167.279C14.4 167.351 14.688 167.423 14.904 167.495C15.24 167.591 15.744 167.687 16.416 167.783C16.704 167.807 17.076 167.867 17.532 167.963C19.74 168.347 22.212 168.539 24.948 168.539L26.1 168.539L27.144 168.503C27.456 168.479 28.08 168.455 29.016 168.431C29.928 168.383 30.744 168.311 31.464 168.215C32.112 168.143 33.012 167.843 34.164 167.315C34.596 167.051 34.812 166.691 34.812 166.235Z" fill="#A21414"/>
<rect x="20" y="92" width="4" height="20" fill="#A21414"/>
<rect x="20" y="122" width="4" height="20" fill="#A21414"/>
<path d="M23.4142 60.5858C22.6332 59.8047 21.3668 59.8047 20.5858 60.5858L7.85786 73.3137C7.07682 74.0948 7.07682 75.3611 7.85786 76.1421C8.63891 76.9232 9.90524 76.9232 10.6863 76.1421L22 64.8284L33.3137 76.1421C34.0948 76.9232 35.3611 76.9232 36.1421 76.1421C36.9232 75.3611 36.9232 74.0948 36.1421 73.3137L23.4142 60.5858ZM24 82V62H20V82H24Z" fill="#A21414"/>
<path d="M2 32H42V40H2V32Z" fill="#BC2D2D"/>
<path d="M2 16H42V24H2V16Z" fill="#BC2D2D"/>
<path d="M2 0H42V8H2V0Z" fill="#BC2D2D"/>
</svg>
