<svg width="47" height="156" viewBox="0 0 47 156" fill="none" xmlns="http://www.w3.org/2000/svg">
<path d="M36.936 143.472C36.936 143.712 36.816 143.904 36.576 144.048C36.336 144.192 35.988 144.264 35.532 144.264L30.204 144.3C29.748 144.324 28.992 144.336 27.936 144.336C25.704 144.384 23.184 144.408 20.376 144.408L18.54 144.408C19.692 144.624 21.312 144.996 23.4 145.524C25.56 146.052 27.336 146.424 28.728 146.64L28.944 146.64L29.628 146.748C30.156 146.796 30.696 146.916 31.248 147.108C31.824 147.348 32.112 147.72 32.112 148.224C32.112 149.088 30.984 149.52 28.728 149.52C27.48 149.52 26.148 149.652 24.732 149.916C23.292 150.156 21.528 150.552 19.44 151.104L15.408 152.184L19.728 152.256C21.024 152.256 23.496 152.196 27.144 152.076L29.592 152.004L34.524 151.932C35.028 151.932 35.484 152.112 35.892 152.472C35.892 153.072 35.712 153.492 35.352 153.732C34.968 153.948 34.416 154.056 33.696 154.056L30.744 153.984C29.448 153.912 28.476 153.876 27.828 153.876L20.88 153.948L13.896 154.02C12.864 154.02 11.316 153.996 9.252 153.948L8.676 152.976C8.7 152.784 8.844 152.592 9.108 152.4C9.348 152.208 9.744 151.992 10.296 151.752C11.784 151.152 14.76 150.372 19.224 149.412C19.848 149.268 20.364 149.172 20.772 149.124C22.164 148.836 23.22 148.632 23.94 148.512L26.712 147.972L25.524 147.72L22.572 147.036C20.844 146.652 19.332 146.34 18.036 146.1C16.74 145.836 15.336 145.584 13.824 145.344C12.024 145.08 10.524 144.912 9.324 144.84L9.108 144.84C8.796 144.792 8.556 144.648 8.388 144.408C8.196 144.168 8.1 143.88 8.1 143.544C8.1 143.328 8.196 143.136 8.388 142.968C8.58 142.8 8.784 142.716 9 142.716C11.88 142.716 16.188 142.608 21.924 142.392C24.732 142.272 27.48 142.188 30.168 142.14C31.392 142.092 32.94 142.068 34.812 142.068C35.364 142.068 35.856 142.212 36.288 142.5C36.72 142.788 36.936 143.112 36.936 143.472ZM36.468 135.836C36.468 136.148 36.36 136.436 36.144 136.7C35.928 136.94 35.664 137.072 35.352 137.096L34.416 137.096L33.696 137.096C33.48 137.12 33.228 137.132 32.94 137.132C32.436 137.132 31.668 137.168 30.636 137.24L28.332 137.312C27.156 137.312 25.404 137.276 23.076 137.204C20.988 137.108 19.236 137.059 17.82 137.059C17.484 137.059 16.98 137.096 16.308 137.168C15.612 137.24 15.108 137.276 14.796 137.276C13.092 137.276 12.24 136.772 12.24 135.763C12.24 134.971 12.396 134.06 12.708 133.028C13.02 131.971 13.392 131.443 13.824 131.443C14.064 131.443 14.292 131.551 14.508 131.767C14.7 131.959 14.856 132.199 14.976 132.488C14.616 133.495 14.376 134.407 14.256 135.223C14.616 135.2 15.132 135.188 15.804 135.188C16.764 135.188 17.628 135.2 18.396 135.224C19.548 135.295 20.412 135.331 20.988 135.331L21.564 135.224L21.528 134.648C21.504 134.456 21.492 134.216 21.492 133.927C21.492 132.776 21.828 132.2 22.5 132.2C22.764 132.2 22.992 132.307 23.184 132.523C23.352 132.739 23.436 133.015 23.436 133.351C23.436 133.783 23.412 134.12 23.364 134.36L23.364 135.26C23.988 135.212 24.9 135.188 26.1 135.188C27.3 135.188 28.38 135.2 29.34 135.224C30.804 135.296 31.896 135.332 32.616 135.332C33.96 135.332 34.632 135.308 34.632 135.26L34.596 134.072C34.572 133.664 34.56 133.172 34.56 132.595C34.56 131.683 34.848 131.227 35.424 131.227C35.76 131.227 36.012 131.383 36.18 131.695C36.372 131.984 36.468 132.344 36.468 132.776L36.468 135.836ZM36 120.925C36 121.741 34.02 122.149 30.06 122.149L28.008 122.113L26.352 122.077L26.244 122.077L25.884 122.077C25.692 122.053 25.464 122.041 25.2 122.041C25.152 122.041 25.092 122.077 25.02 122.149C24.948 122.221 24.888 122.257 24.84 122.257L24.804 122.257C24.852 122.377 24.876 122.593 24.876 122.905C24.876 123.217 24.828 123.601 24.732 124.057C24.708 124.201 24.648 124.585 24.552 125.209L28.692 125.209C29.316 125.209 30.3 125.173 31.644 125.101C32.964 125.029 33.948 124.993 34.596 124.993C34.956 124.993 35.268 125.089 35.532 125.281C35.796 125.473 35.928 125.725 35.928 126.037C35.928 126.493 35.484 126.817 34.596 127.009C33.684 127.201 32.496 127.297 31.032 127.297L28.116 127.225C27.3 127.201 26.436 127.189 25.524 127.189L24.912 127.189L24.408 127.189C24.024 127.189 23.772 127.201 23.652 127.225L23.472 127.225L21.384 127.117C20.472 127.117 19.116 127.153 17.316 127.225C15.516 127.297 14.16 127.333 13.248 127.333C12.96 127.333 12.708 127.237 12.492 127.045C12.276 126.853 12.168 126.613 12.168 126.325C12.168 125.557 12.888 125.173 14.328 125.173L18.792 125.245C20.136 125.293 21.636 125.317 23.292 125.317C23.412 124.957 23.472 124.309 23.472 123.373L23.472 122.041C23.328 121.993 23.184 121.969 23.04 121.969C21.888 121.969 20.184 122.041 17.928 122.185C15.816 122.353 14.1 122.437 12.78 122.437C12.516 122.437 12.3 122.341 12.132 122.149C11.94 121.933 11.844 121.681 11.844 121.393C11.844 121.225 11.904 120.985 12.024 120.673L12.168 120.349C15.576 120.349 20.124 120.229 25.812 119.989L34.92 119.665C35.256 119.665 35.52 119.797 35.712 120.061C35.904 120.301 36 120.589 36 120.925ZM36.252 106.235C36.252 106.811 36.072 107.363 35.712 107.891C35.352 108.419 34.836 108.851 34.164 109.187C33.588 109.475 32.976 109.679 32.328 109.799C31.656 109.895 30.84 109.979 29.88 110.051L25.452 110.375L25.452 113.471L28.98 113.471L30.42 113.471L34.848 113.111C35.256 113.063 35.544 113.123 35.712 113.291C35.88 113.435 35.964 113.735 35.964 114.191C35.964 114.527 35.916 114.767 35.82 114.911C35.724 115.055 35.544 115.151 35.28 115.199C34.896 115.247 34.308 115.271 33.516 115.271L30.78 115.307C28.38 115.355 26.568 115.379 25.344 115.379C24.36 115.379 23.628 115.367 23.148 115.343L20.88 115.307C20.304 115.307 19.296 115.331 17.856 115.379L15.228 115.415C14.94 115.415 14.508 115.391 13.932 115.343L12.672 115.307C12.36 115.307 12.156 115.247 12.06 115.127C11.964 114.983 11.916 114.719 11.916 114.335C11.916 113.951 12.036 113.639 12.276 113.399C12.492 113.135 12.768 113.027 13.104 113.075C13.56 113.147 14.04 113.183 14.544 113.183C15.048 113.183 15.432 113.171 15.696 113.147L16.884 113.111C18.084 113.111 19.236 113.159 20.34 113.255C21.492 113.351 22.752 113.399 24.12 113.399C24.168 113.015 24.192 112.727 24.192 112.535C24.192 112.103 24.096 111.383 23.904 110.375C22.512 110.303 20.952 110.171 19.224 109.979C17.448 109.787 15.876 109.559 14.508 109.295C14.004 109.199 13.356 108.911 12.564 108.431C12.324 108.311 12.144 108.119 12.024 107.855C11.904 107.591 11.844 107.303 11.844 106.991C11.844 106.559 12.024 105.983 12.384 105.263C12.744 104.519 13.152 103.931 13.608 103.499C14.424 102.755 15.456 102.167 16.704 101.735C17.952 101.279 19.332 101.051 20.844 101.051C21.588 101.051 22.284 101.099 22.932 101.195C23.628 101.291 24.684 101.339 26.1 101.339C27.396 101.339 28.368 101.375 29.016 101.447C31.104 101.663 32.88 102.179 34.344 102.995C34.944 103.307 35.412 103.775 35.748 104.399C36.084 105.023 36.252 105.635 36.252 106.235ZM34.812 106.235C34.812 105.779 34.596 105.407 34.164 105.119C32.844 104.471 31.68 104.027 30.672 103.787C29.664 103.523 28.332 103.379 26.676 103.355C24.516 103.259 22.716 103.211 21.276 103.211L19.728 103.247C18.288 103.295 16.92 103.523 15.624 103.931C15.216 104.051 14.808 104.279 14.4 104.615C13.968 104.927 13.62 105.275 13.356 105.659C13.116 106.019 12.996 106.319 12.996 106.559C12.996 106.751 13.08 106.895 13.248 106.991C13.416 107.087 13.68 107.183 14.04 107.279C14.4 107.351 14.688 107.423 14.904 107.495C15.24 107.591 15.744 107.687 16.416 107.783C16.704 107.807 17.076 107.867 17.532 107.963C19.74 108.347 22.212 108.539 24.948 108.539L26.1 108.539L27.144 108.503C27.456 108.479 28.08 108.455 29.016 108.431C29.928 108.383 30.744 108.311 31.464 108.215C32.112 108.143 33.012 107.843 34.164 107.315C34.596 107.051 34.812 106.691 34.812 106.235Z" fill="#E2E2E2"/>
<rect x="20.8889" y="32" width="4.17778" height="20" fill="#E2E2E2"/>
<rect x="20.8889" y="62" width="4.17778" height="20" fill="#E2E2E2"/>
<path d="M24.392 0.585786C23.6109 -0.195262 22.3446 -0.195262 21.5636 0.585786L8.83565 13.3137C8.0546 14.0948 8.0546 15.3611 8.83565 16.1421C9.6167 16.9232 10.883 16.9232 11.6641 16.1421L22.9778 4.82843L34.2915 16.1421C35.0725 16.9232 36.3389 16.9232 37.1199 16.1421C37.901 15.3611 37.901 14.0948 37.1199 13.3137L24.392 0.585786ZM24.9778 22V2H20.9778V22H24.9778Z" fill="#E2E2E2"/>
</svg>
