<svg width="452" height="103" viewBox="0 0 452 103" fill="none" xmlns="http://www.w3.org/2000/svg">
<path d="M5.92334 99.9998L5.92333 1.95025e-05M446.076 100L446.076 0.000271395" stroke="#E2E2E2" stroke-width="10"/>
<path d="M1 97.9381H451" stroke="#E2E2E2" stroke-width="10"/>
<line x1="1" y1="5" x2="99.4683" y2="5" stroke="#E2E2E2" stroke-width="10"/>
<line x1="352.532" y1="5" x2="451" y2="5" stroke="#E2E2E2" stroke-width="10"/>
<path d="M155.752 80.016C154.456 80.016 153.28 79.584 152.224 78.72C151.168 77.856 150.256 76.68 149.488 75.192C148.096 72.6 147.064 69.048 146.392 64.536C145.912 61.416 145.552 57.816 145.312 53.736L145.24 49.92V46.032C145.192 44.784 145.168 43.272 145.168 41.496C145.168 38.616 145.288 36.072 145.528 33.864C145.72 31.56 146.2 29.28 146.968 27.024C147.736 25.056 148.84 23.664 150.28 22.848C151.144 22.464 152.008 22.272 152.872 22.272C155.416 22.272 157.432 23.28 158.92 25.296C160.552 27.552 161.632 30.072 162.16 32.856C162.928 36.216 163.36 39.432 163.456 42.504C163.648 45.912 163.744 49.128 163.744 52.152V56.256C163.744 57.072 163.624 58.608 163.384 60.864C163.192 62.64 163.096 64.152 163.096 65.4V65.688C162.808 67.032 162.664 68.616 162.664 70.44C162.664 71.784 162.376 73.176 161.8 74.616C161.224 76.056 160.408 77.28 159.352 78.288C158.296 79.44 157.096 80.016 155.752 80.016ZM155.896 76.056C156.856 76.056 157.672 75.168 158.344 73.392C158.92 71.808 159.328 69.888 159.568 67.632C159.856 65.328 160.096 62.736 160.288 59.856C160.384 58.608 160.432 57 160.432 55.032L160.36 48.408C160.264 45.816 159.976 42.576 159.496 38.688C159.112 35.376 158.392 32.448 157.336 29.904C156.856 28.704 156.256 27.768 155.536 27.096C154.816 26.424 154.048 26.088 153.232 26.088C152.032 26.088 151.144 27.024 150.568 28.896C149.848 30.864 149.368 33.024 149.128 35.376C148.84 37.92 148.672 40.344 148.624 42.648L148.552 45.024C148.504 45.696 148.48 46.608 148.48 47.76V48.048C148.48 51.264 148.816 55.224 149.488 59.928C150.256 66.312 151.384 70.848 152.872 73.536C153.832 75.216 154.84 76.056 155.896 76.056ZM175.802 78C174.266 78 173.114 77.88 172.346 77.64C171.866 77.496 171.53 77.232 171.338 76.848C171.194 76.464 171.122 75.936 171.122 75.264C171.074 74.256 171.05 72.84 171.05 71.016C171.05 69.576 171.098 67.608 171.194 65.112L171.266 59.352C171.314 58.296 171.338 56.736 171.338 54.672C171.338 53.136 171.314 51.984 171.266 51.216L171.122 42.288C171.122 37.68 171.074 34.224 170.978 31.92C170.93 30.624 170.906 28.704 170.906 26.16C170.906 25.248 171.05 24.648 171.338 24.36C171.674 24.072 172.322 23.904 173.282 23.856L175.802 23.784C177.818 23.64 179.786 23.568 181.706 23.568C182.426 23.568 183.098 23.808 183.722 24.288C184.058 24.576 184.226 24.96 184.226 25.44C184.226 25.968 183.962 26.376 183.434 26.664C182.57 27.096 181.73 27.312 180.914 27.312C177.794 27.312 175.946 27.408 175.37 27.6C174.842 27.792 174.578 28.272 174.578 29.04C174.578 29.76 174.578 30.336 174.578 30.768L174.65 33.792C174.746 36.48 174.794 38.496 174.794 39.84C174.794 41.52 174.77 42.792 174.722 43.656C174.674 43.944 174.65 44.208 174.65 44.448C174.698 44.688 174.722 44.904 174.722 45.096C174.77 45.432 174.794 46.056 174.794 46.968C177.338 46.824 179.354 47.352 180.842 48.552C182.282 49.752 183.53 51.744 184.586 54.528C185.642 57.312 186.17 60.216 186.17 63.24C186.17 64.152 186.146 64.824 186.098 65.256C185.762 68.088 184.898 70.584 183.506 72.744C182.402 74.328 181.202 75.504 179.906 76.272C179.666 76.416 179.282 76.656 178.754 76.992C178.226 77.28 177.722 77.52 177.242 77.712C176.762 77.904 176.282 78 175.802 78ZM175.37 73.752C176.954 73.512 178.298 72.84 179.402 71.736C180.554 70.632 181.298 69.216 181.634 67.488C182.066 65.952 182.282 64.224 182.282 62.304C182.282 60.144 182.018 58.008 181.49 55.896C181.298 55.128 180.986 54.384 180.554 53.664C180.122 52.944 179.666 52.272 179.186 51.648C178.754 51.024 178.442 50.568 178.25 50.28C177.722 50.088 177.194 49.992 176.666 49.992L174.866 50.064C174.962 53.04 175.058 57.552 175.154 63.6L175.37 73.752ZM200.73 79.368C199.482 79.368 198.33 78.96 197.274 78.144C196.218 77.376 195.354 76.32 194.682 74.976C193.29 72.048 192.426 68.856 192.09 65.4C191.658 62.136 191.442 58.992 191.442 55.968C191.442 55.392 191.466 54.912 191.514 54.528V53.232C191.514 52.992 191.49 52.872 191.442 52.872V51.576L191.514 46.536C191.562 45 191.754 42.552 192.09 39.192C192.33 36.888 192.882 34.656 193.746 32.496C194.082 31.536 194.514 30.816 195.042 30.336C195.57 29.808 196.17 29.544 196.842 29.544C198.762 29.544 200.49 29.904 202.026 30.624C203.562 31.296 204.858 32.256 205.914 33.504C206.874 34.704 207.69 36.192 208.362 37.968C209.034 39.696 209.514 41.544 209.802 43.512C210.09 45.528 210.234 47.664 210.234 49.92V50.496C210.234 51.984 210.258 53.328 210.306 54.528L210.378 58.632C210.378 72.456 207.162 79.368 200.73 79.368ZM200.442 76.344C201.306 76.344 202.098 76.008 202.818 75.336C203.538 74.616 204.09 73.656 204.474 72.456C205.386 70.008 205.938 67.368 206.13 64.536C206.37 62.088 206.49 59.976 206.49 58.2C206.49 56.04 206.322 53.208 205.986 49.704C205.698 46.008 205.554 43.248 205.554 41.424V40.128C205.458 38.304 204.834 36.72 203.682 35.376C202.578 34.032 201.21 33.36 199.578 33.36C197.946 33.36 196.866 34.296 196.338 36.168C195.858 37.656 195.618 39.576 195.618 41.928C195.618 42.84 195.642 43.608 195.69 44.232V46.176L195.546 49.488C195.45 50.496 195.402 51.6 195.402 52.8C195.402 55.392 195.474 57.96 195.618 60.504C195.81 64.104 196.29 67.608 197.058 71.016C197.826 74.568 198.954 76.344 200.442 76.344ZM260.416 81.744C258.928 81.744 258.184 80.256 258.184 77.28V72.672V68.064C258.184 65.664 258.016 62.52 257.68 58.632C257.296 54.264 257.104 51.264 257.104 49.632L257.248 45.168C257.344 43.872 257.392 42.408 257.392 40.776C257.2 41.4 256.408 44.712 255.016 50.712C253.624 56.52 252.184 61.896 250.696 66.84C249.256 71.592 248.08 73.968 247.168 73.968C246.256 73.968 245.512 73.704 244.936 73.176C244.408 72.6 244.144 71.832 244.144 70.872C244.144 68.76 243.28 64.272 241.552 57.408C239.872 50.544 238.336 44.928 236.944 40.56L236.512 48.696C236.128 55.56 235.864 61.272 235.72 65.832C235.624 70.248 235.576 73.272 235.576 74.904C235.576 75.288 235.6 75.648 235.648 75.984V76.992C235.648 77.808 235.48 78.408 235.144 78.792C234.808 79.224 234.184 79.44 233.272 79.44C232.792 79.44 232.336 79.248 231.904 78.864C231.472 78.528 231.256 78.144 231.256 77.712C231.256 72.816 231.616 65.472 232.336 55.68C233.056 45.888 233.416 38.544 233.416 33.648C233.128 33.216 232.984 32.76 232.984 32.28C232.984 31.704 233.248 31.272 233.776 30.984C234.352 30.648 235.024 30.48 235.792 30.48C236.416 30.48 237.568 32.736 239.248 37.248C240.928 41.76 242.608 46.872 244.288 52.584C245.968 58.296 247.048 62.424 247.528 64.968C247.912 63.672 248.224 62.472 248.464 61.368L248.896 59.64C250.432 52.92 251.968 46.848 253.504 41.424C254.416 38.112 255.304 35.52 256.168 33.648C257.032 31.632 257.824 30.624 258.544 30.624C259.216 30.624 259.816 30.816 260.344 31.2C260.92 31.536 261.208 31.992 261.208 32.568C261.208 36.024 261.352 41.208 261.64 48.12C261.976 54.552 262.144 59.544 262.144 63.096L262.072 66.912L261.928 70.728C261.928 71.304 262 72.168 262.144 73.32L262.36 75.84C262.408 76.272 262.432 76.608 262.432 76.848C262.48 77.088 262.504 77.232 262.504 77.28C262.744 77.904 262.864 78.36 262.864 78.648C262.864 79.464 262.624 80.184 262.144 80.808C261.664 81.432 261.088 81.744 260.416 81.744ZM284.431 78C282.799 78 281.983 74.04 281.983 66.12L282.055 62.016L282.127 58.704V58.488V57.768C282.175 57.384 282.199 56.928 282.199 56.4C282.199 56.304 282.127 56.184 281.983 56.04C281.839 55.896 281.767 55.776 281.767 55.68V55.608C281.527 55.704 281.095 55.752 280.471 55.752C279.847 55.752 279.079 55.656 278.167 55.464C277.879 55.416 277.111 55.296 275.863 55.104V63.384C275.863 64.632 275.935 66.6 276.079 69.288C276.223 71.928 276.295 73.896 276.295 75.192C276.295 75.912 276.103 76.536 275.719 77.064C275.335 77.592 274.831 77.856 274.207 77.856C273.295 77.856 272.647 76.968 272.263 75.192C271.879 73.368 271.687 70.992 271.687 68.064L271.831 62.232C271.879 60.6 271.903 58.872 271.903 57.048V55.824V54.816C271.903 54.048 271.879 53.544 271.831 53.304V52.944L272.047 48.768C272.047 46.944 271.975 44.232 271.831 40.632C271.687 37.032 271.615 34.32 271.615 32.496C271.615 31.92 271.807 31.416 272.191 30.984C272.575 30.552 273.055 30.336 273.631 30.336C275.167 30.336 275.935 31.776 275.935 34.656L275.791 43.584C275.695 46.272 275.647 49.272 275.647 52.584C276.367 52.824 277.663 52.944 279.535 52.944H282.199C282.295 52.656 282.343 52.368 282.343 52.08C282.343 49.776 282.199 46.368 281.911 41.856C281.575 37.632 281.407 34.2 281.407 31.56C281.407 31.032 281.599 30.6 281.983 30.264C282.415 29.88 282.919 29.688 283.495 29.688C283.831 29.688 284.311 29.808 284.935 30.048L285.583 30.336C285.583 37.152 285.823 46.248 286.303 57.624L286.951 75.84C286.951 76.512 286.687 77.04 286.159 77.424C285.679 77.808 285.103 78 284.431 78ZM298.907 78.936C298.283 78.936 297.707 78.72 297.179 78.288C296.699 77.856 296.435 77.328 296.387 76.704V74.832V73.392C296.339 72.96 296.315 72.456 296.315 71.88C296.315 70.872 296.243 69.336 296.099 67.272L295.955 62.664C295.955 60.312 296.027 56.808 296.171 52.152C296.363 47.976 296.459 44.472 296.459 41.64C296.459 40.968 296.387 39.96 296.243 38.616C296.099 37.224 296.027 36.216 296.027 35.592C296.027 32.184 297.035 30.48 299.051 30.48C300.635 30.48 302.459 30.792 304.523 31.416C306.635 32.04 307.691 32.784 307.691 33.648C307.691 34.128 307.475 34.584 307.043 35.016C306.659 35.4 306.179 35.712 305.603 35.952C303.587 35.232 301.763 34.752 300.131 34.512C300.179 35.232 300.203 36.264 300.203 37.608C300.203 39.528 300.179 41.256 300.131 42.792C299.987 45.096 299.915 46.824 299.915 47.976L300.131 49.128L301.283 49.056C301.667 49.008 302.147 48.984 302.723 48.984C305.027 48.984 306.179 49.656 306.179 51C306.179 51.528 305.963 51.984 305.531 52.368C305.099 52.704 304.547 52.872 303.875 52.872C303.011 52.872 302.339 52.824 301.859 52.728H300.059C300.155 53.976 300.203 55.8 300.203 58.2C300.203 60.6 300.179 62.76 300.131 64.68C299.987 67.608 299.915 69.792 299.915 71.232C299.915 73.92 299.963 75.264 300.059 75.264L302.435 75.192C303.251 75.144 304.235 75.12 305.387 75.12C307.211 75.12 308.123 75.696 308.123 76.848C308.123 77.52 307.811 78.024 307.187 78.36C306.611 78.744 305.891 78.936 305.027 78.936H298.907Z" fill="#A21414"/>
<path d="M154.752 79.016C153.456 79.016 152.28 78.584 151.224 77.72C150.168 76.856 149.256 75.68 148.488 74.192C147.096 71.6 146.064 68.048 145.392 63.536C144.912 60.416 144.552 56.816 144.312 52.736L144.24 48.92V45.032C144.192 43.784 144.168 42.272 144.168 40.496C144.168 37.616 144.288 35.072 144.528 32.864C144.72 30.56 145.2 28.28 145.968 26.024C146.736 24.056 147.84 22.664 149.28 21.848C150.144 21.464 151.008 21.272 151.872 21.272C154.416 21.272 156.432 22.28 157.92 24.296C159.552 26.552 160.632 29.072 161.16 31.856C161.928 35.216 162.36 38.432 162.456 41.504C162.648 44.912 162.744 48.128 162.744 51.152V55.256C162.744 56.072 162.624 57.608 162.384 59.864C162.192 61.64 162.096 63.152 162.096 64.4V64.688C161.808 66.032 161.664 67.616 161.664 69.44C161.664 70.784 161.376 72.176 160.8 73.616C160.224 75.056 159.408 76.28 158.352 77.288C157.296 78.44 156.096 79.016 154.752 79.016ZM154.896 75.056C155.856 75.056 156.672 74.168 157.344 72.392C157.92 70.808 158.328 68.888 158.568 66.632C158.856 64.328 159.096 61.736 159.288 58.856C159.384 57.608 159.432 56 159.432 54.032L159.36 47.408C159.264 44.816 158.976 41.576 158.496 37.688C158.112 34.376 157.392 31.448 156.336 28.904C155.856 27.704 155.256 26.768 154.536 26.096C153.816 25.424 153.048 25.088 152.232 25.088C151.032 25.088 150.144 26.024 149.568 27.896C148.848 29.864 148.368 32.024 148.128 34.376C147.84 36.92 147.672 39.344 147.624 41.648L147.552 44.024C147.504 44.696 147.48 45.608 147.48 46.76V47.048C147.48 50.264 147.816 54.224 148.488 58.928C149.256 65.312 150.384 69.848 151.872 72.536C152.832 74.216 153.84 75.056 154.896 75.056ZM174.802 77C173.266 77 172.114 76.88 171.346 76.64C170.866 76.496 170.53 76.232 170.338 75.848C170.194 75.464 170.122 74.936 170.122 74.264C170.074 73.256 170.05 71.84 170.05 70.016C170.05 68.576 170.098 66.608 170.194 64.112L170.266 58.352C170.314 57.296 170.338 55.736 170.338 53.672C170.338 52.136 170.314 50.984 170.266 50.216L170.122 41.288C170.122 36.68 170.074 33.224 169.978 30.92C169.93 29.624 169.906 27.704 169.906 25.16C169.906 24.248 170.05 23.648 170.338 23.36C170.674 23.072 171.322 22.904 172.282 22.856L174.802 22.784C176.818 22.64 178.786 22.568 180.706 22.568C181.426 22.568 182.098 22.808 182.722 23.288C183.058 23.576 183.226 23.96 183.226 24.44C183.226 24.968 182.962 25.376 182.434 25.664C181.57 26.096 180.73 26.312 179.914 26.312C176.794 26.312 174.946 26.408 174.37 26.6C173.842 26.792 173.578 27.272 173.578 28.04C173.578 28.76 173.578 29.336 173.578 29.768L173.65 32.792C173.746 35.48 173.794 37.496 173.794 38.84C173.794 40.52 173.77 41.792 173.722 42.656C173.674 42.944 173.65 43.208 173.65 43.448C173.698 43.688 173.722 43.904 173.722 44.096C173.77 44.432 173.794 45.056 173.794 45.968C176.338 45.824 178.354 46.352 179.842 47.552C181.282 48.752 182.53 50.744 183.586 53.528C184.642 56.312 185.17 59.216 185.17 62.24C185.17 63.152 185.146 63.824 185.098 64.256C184.762 67.088 183.898 69.584 182.506 71.744C181.402 73.328 180.202 74.504 178.906 75.272C178.666 75.416 178.282 75.656 177.754 75.992C177.226 76.28 176.722 76.52 176.242 76.712C175.762 76.904 175.282 77 174.802 77ZM174.37 72.752C175.954 72.512 177.298 71.84 178.402 70.736C179.554 69.632 180.298 68.216 180.634 66.488C181.066 64.952 181.282 63.224 181.282 61.304C181.282 59.144 181.018 57.008 180.49 54.896C180.298 54.128 179.986 53.384 179.554 52.664C179.122 51.944 178.666 51.272 178.186 50.648C177.754 50.024 177.442 49.568 177.25 49.28C176.722 49.088 176.194 48.992 175.666 48.992L173.866 49.064C173.962 52.04 174.058 56.552 174.154 62.6L174.37 72.752ZM199.73 78.368C198.482 78.368 197.33 77.96 196.274 77.144C195.218 76.376 194.354 75.32 193.682 73.976C192.29 71.048 191.426 67.856 191.09 64.4C190.658 61.136 190.442 57.992 190.442 54.968C190.442 54.392 190.466 53.912 190.514 53.528V52.232C190.514 51.992 190.49 51.872 190.442 51.872V50.576L190.514 45.536C190.562 44 190.754 41.552 191.09 38.192C191.33 35.888 191.882 33.656 192.746 31.496C193.082 30.536 193.514 29.816 194.042 29.336C194.57 28.808 195.17 28.544 195.842 28.544C197.762 28.544 199.49 28.904 201.026 29.624C202.562 30.296 203.858 31.256 204.914 32.504C205.874 33.704 206.69 35.192 207.362 36.968C208.034 38.696 208.514 40.544 208.802 42.512C209.09 44.528 209.234 46.664 209.234 48.92V49.496C209.234 50.984 209.258 52.328 209.306 53.528L209.378 57.632C209.378 71.456 206.162 78.368 199.73 78.368ZM199.442 75.344C200.306 75.344 201.098 75.008 201.818 74.336C202.538 73.616 203.09 72.656 203.474 71.456C204.386 69.008 204.938 66.368 205.13 63.536C205.37 61.088 205.49 58.976 205.49 57.2C205.49 55.04 205.322 52.208 204.986 48.704C204.698 45.008 204.554 42.248 204.554 40.424V39.128C204.458 37.304 203.834 35.72 202.682 34.376C201.578 33.032 200.21 32.36 198.578 32.36C196.946 32.36 195.866 33.296 195.338 35.168C194.858 36.656 194.618 38.576 194.618 40.928C194.618 41.84 194.642 42.608 194.69 43.232V45.176L194.546 48.488C194.45 49.496 194.402 50.6 194.402 51.8C194.402 54.392 194.474 56.96 194.618 59.504C194.81 63.104 195.29 66.608 196.058 70.016C196.826 73.568 197.954 75.344 199.442 75.344ZM259.416 80.744C257.928 80.744 257.184 79.256 257.184 76.28V71.672V67.064C257.184 64.664 257.016 61.52 256.68 57.632C256.296 53.264 256.104 50.264 256.104 48.632L256.248 44.168C256.344 42.872 256.392 41.408 256.392 39.776C256.2 40.4 255.408 43.712 254.016 49.712C252.624 55.52 251.184 60.896 249.696 65.84C248.256 70.592 247.08 72.968 246.168 72.968C245.256 72.968 244.512 72.704 243.936 72.176C243.408 71.6 243.144 70.832 243.144 69.872C243.144 67.76 242.28 63.272 240.552 56.408C238.872 49.544 237.336 43.928 235.944 39.56L235.512 47.696C235.128 54.56 234.864 60.272 234.72 64.832C234.624 69.248 234.576 72.272 234.576 73.904C234.576 74.288 234.6 74.648 234.648 74.984V75.992C234.648 76.808 234.48 77.408 234.144 77.792C233.808 78.224 233.184 78.44 232.272 78.44C231.792 78.44 231.336 78.248 230.904 77.864C230.472 77.528 230.256 77.144 230.256 76.712C230.256 71.816 230.616 64.472 231.336 54.68C232.056 44.888 232.416 37.544 232.416 32.648C232.128 32.216 231.984 31.76 231.984 31.28C231.984 30.704 232.248 30.272 232.776 29.984C233.352 29.648 234.024 29.48 234.792 29.48C235.416 29.48 236.568 31.736 238.248 36.248C239.928 40.76 241.608 45.872 243.288 51.584C244.968 57.296 246.048 61.424 246.528 63.968C246.912 62.672 247.224 61.472 247.464 60.368L247.896 58.64C249.432 51.92 250.968 45.848 252.504 40.424C253.416 37.112 254.304 34.52 255.168 32.648C256.032 30.632 256.824 29.624 257.544 29.624C258.216 29.624 258.816 29.816 259.344 30.2C259.92 30.536 260.208 30.992 260.208 31.568C260.208 35.024 260.352 40.208 260.64 47.12C260.976 53.552 261.144 58.544 261.144 62.096L261.072 65.912L260.928 69.728C260.928 70.304 261 71.168 261.144 72.32L261.36 74.84C261.408 75.272 261.432 75.608 261.432 75.848C261.48 76.088 261.504 76.232 261.504 76.28C261.744 76.904 261.864 77.36 261.864 77.648C261.864 78.464 261.624 79.184 261.144 79.808C260.664 80.432 260.088 80.744 259.416 80.744ZM283.431 77C281.799 77 280.983 73.04 280.983 65.12L281.055 61.016L281.127 57.704V57.488V56.768C281.175 56.384 281.199 55.928 281.199 55.4C281.199 55.304 281.127 55.184 280.983 55.04C280.839 54.896 280.767 54.776 280.767 54.68V54.608C280.527 54.704 280.095 54.752 279.471 54.752C278.847 54.752 278.079 54.656 277.167 54.464C276.879 54.416 276.111 54.296 274.863 54.104V62.384C274.863 63.632 274.935 65.6 275.079 68.288C275.223 70.928 275.295 72.896 275.295 74.192C275.295 74.912 275.103 75.536 274.719 76.064C274.335 76.592 273.831 76.856 273.207 76.856C272.295 76.856 271.647 75.968 271.263 74.192C270.879 72.368 270.687 69.992 270.687 67.064L270.831 61.232C270.879 59.6 270.903 57.872 270.903 56.048V54.824V53.816C270.903 53.048 270.879 52.544 270.831 52.304V51.944L271.047 47.768C271.047 45.944 270.975 43.232 270.831 39.632C270.687 36.032 270.615 33.32 270.615 31.496C270.615 30.92 270.807 30.416 271.191 29.984C271.575 29.552 272.055 29.336 272.631 29.336C274.167 29.336 274.935 30.776 274.935 33.656L274.791 42.584C274.695 45.272 274.647 48.272 274.647 51.584C275.367 51.824 276.663 51.944 278.535 51.944H281.199C281.295 51.656 281.343 51.368 281.343 51.08C281.343 48.776 281.199 45.368 280.911 40.856C280.575 36.632 280.407 33.2 280.407 30.56C280.407 30.032 280.599 29.6 280.983 29.264C281.415 28.88 281.919 28.688 282.495 28.688C282.831 28.688 283.311 28.808 283.935 29.048L284.583 29.336C284.583 36.152 284.823 45.248 285.303 56.624L285.951 74.84C285.951 75.512 285.687 76.04 285.159 76.424C284.679 76.808 284.103 77 283.431 77ZM297.907 77.936C297.283 77.936 296.707 77.72 296.179 77.288C295.699 76.856 295.435 76.328 295.387 75.704V73.832V72.392C295.339 71.96 295.315 71.456 295.315 70.88C295.315 69.872 295.243 68.336 295.099 66.272L294.955 61.664C294.955 59.312 295.027 55.808 295.171 51.152C295.363 46.976 295.459 43.472 295.459 40.64C295.459 39.968 295.387 38.96 295.243 37.616C295.099 36.224 295.027 35.216 295.027 34.592C295.027 31.184 296.035 29.48 298.051 29.48C299.635 29.48 301.459 29.792 303.523 30.416C305.635 31.04 306.691 31.784 306.691 32.648C306.691 33.128 306.475 33.584 306.043 34.016C305.659 34.4 305.179 34.712 304.603 34.952C302.587 34.232 300.763 33.752 299.131 33.512C299.179 34.232 299.203 35.264 299.203 36.608C299.203 38.528 299.179 40.256 299.131 41.792C298.987 44.096 298.915 45.824 298.915 46.976L299.131 48.128L300.283 48.056C300.667 48.008 301.147 47.984 301.723 47.984C304.027 47.984 305.179 48.656 305.179 50C305.179 50.528 304.963 50.984 304.531 51.368C304.099 51.704 303.547 51.872 302.875 51.872C302.011 51.872 301.339 51.824 300.859 51.728H299.059C299.155 52.976 299.203 54.8 299.203 57.2C299.203 59.6 299.179 61.76 299.131 63.68C298.987 66.608 298.915 68.792 298.915 70.232C298.915 72.92 298.963 74.264 299.059 74.264L301.435 74.192C302.251 74.144 303.235 74.12 304.387 74.12C306.211 74.12 307.123 74.696 307.123 75.848C307.123 76.52 306.811 77.024 306.187 77.36C305.611 77.744 304.891 77.936 304.027 77.936H297.907Z" fill="#E2E2E2"/>
</svg>
