<svg width="140" height="80" viewBox="0 0 140 80" fill="none" xmlns="http://www.w3.org/2000/svg">
<rect width="140" height="80" rx="10" fill="#E2E2E2"/>
<rect x="10" y="13" width="120" height="60" rx="10" fill="#3B3838"/>
<path d="M51.692 32.09C51.56 32.09 51.452 32.036 51.368 31.928C51.296 31.808 51.26 31.664 51.26 31.496L51.296 28.472C51.332 27.008 51.35 25.874 51.35 25.07C51.35 22.274 51.194 20.132 50.882 18.644C51.062 18.368 51.29 18.23 51.566 18.23C52.01 18.23 52.412 18.332 52.772 18.536C53.144 18.728 53.45 18.992 53.69 19.328C54.158 20.024 54.392 20.804 54.392 21.668C54.392 22.568 54.2 23.372 53.816 24.08C53.432 24.788 52.874 25.34 52.142 25.736L52.178 27.554L52.214 28.508C52.226 28.712 52.232 29.006 52.232 29.39C52.268 30.194 52.286 30.848 52.286 31.352C52.286 31.58 52.238 31.76 52.142 31.892C52.046 32.024 51.896 32.09 51.692 32.09ZM52.106 24.872C52.574 24.428 52.916 23.966 53.132 23.486C53.36 22.994 53.474 22.442 53.474 21.83V21.812C53.474 21.536 53.444 21.188 53.384 20.768C53.348 20.624 53.282 20.48 53.186 20.336C53.09 20.192 53.036 20.108 53.024 20.084C52.94 19.964 52.718 19.778 52.358 19.526L51.89 19.184C51.89 19.796 51.926 20.744 51.998 22.028L52.106 24.872ZM59.4335 32.306C59.1695 32.306 58.9295 32.018 58.7135 31.442C58.4615 30.818 58.2755 30.176 58.1555 29.516L58.0295 28.904C57.6815 27.188 57.4595 26.21 57.3635 25.97H57.1475C57.1475 26.318 57.1415 26.636 57.1295 26.924V27.914C57.1295 29.522 57.2435 30.776 57.4715 31.676L57.2735 32.162H56.7695L56.5355 31.892L56.5535 30.686C56.5535 29.606 56.4995 27.968 56.3915 25.772C56.2955 23.432 56.2475 21.794 56.2475 20.858C56.2475 20.282 56.4455 19.994 56.8415 19.994C57.4895 19.994 58.0175 20.162 58.4255 20.498C58.8455 20.834 59.0555 21.302 59.0555 21.902V23.162C59.0555 23.342 59.0255 23.552 58.9655 23.792C58.9055 24.02 58.8395 24.206 58.7675 24.35L58.4255 24.998L58.1375 25.538L58.2275 25.97L58.4795 27.248C58.6475 28.172 58.8095 28.922 58.9655 29.498C59.1215 30.074 59.3135 30.596 59.5415 31.064L59.6495 31.28C59.7695 31.52 59.8295 31.712 59.8295 31.856C59.8295 31.976 59.7935 32.078 59.7215 32.162C59.6495 32.258 59.5535 32.306 59.4335 32.306ZM57.2195 25.088C57.4835 24.956 57.7055 24.596 57.8855 24.008C58.0775 23.408 58.1735 22.856 58.1735 22.352C58.1735 21.968 58.1255 21.608 58.0295 21.272C57.9695 21.08 57.8675 20.936 57.7235 20.84C57.5915 20.732 57.4235 20.678 57.2195 20.678L57.1835 20.768L57.1475 20.93L57.1835 23.054C57.2075 23.678 57.2195 24.356 57.2195 25.088ZM63.6981 32.342C63.3861 32.342 63.0981 32.24 62.8341 32.036C62.5701 31.844 62.3541 31.58 62.1861 31.244C61.8381 30.512 61.6221 29.714 61.5381 28.85C61.4301 28.034 61.3761 27.248 61.3761 26.492C61.3761 26.348 61.3821 26.228 61.3941 26.132V25.808C61.3941 25.748 61.3881 25.718 61.3761 25.718V25.394L61.3941 24.134C61.4061 23.75 61.4541 23.138 61.5381 22.298C61.5981 21.722 61.7361 21.164 61.9521 20.624C62.0361 20.384 62.1441 20.204 62.2761 20.084C62.4081 19.952 62.5581 19.886 62.7261 19.886C63.2061 19.886 63.6381 19.976 64.0221 20.156C64.4061 20.324 64.7301 20.564 64.9941 20.876C65.2341 21.176 65.4381 21.548 65.6061 21.992C65.7741 22.424 65.8941 22.886 65.9661 23.378C66.0381 23.882 66.0741 24.416 66.0741 24.98V25.124C66.0741 25.496 66.0801 25.832 66.0921 26.132L66.1101 27.158C66.1101 30.614 65.3061 32.342 63.6981 32.342ZM63.6261 31.586C63.8421 31.586 64.0401 31.502 64.2201 31.334C64.4001 31.154 64.5381 30.914 64.6341 30.614C64.8621 30.002 65.0001 29.342 65.0481 28.634C65.1081 28.022 65.1381 27.494 65.1381 27.05C65.1381 26.51 65.0961 25.802 65.0121 24.926C64.9401 24.002 64.9041 23.312 64.9041 22.856V22.532C64.8801 22.076 64.7241 21.68 64.4361 21.344C64.1601 21.008 63.8181 20.84 63.4101 20.84C63.0021 20.84 62.7321 21.074 62.6001 21.542C62.4801 21.914 62.4201 22.394 62.4201 22.982C62.4201 23.21 62.4261 23.402 62.4381 23.558V24.044L62.4021 24.872C62.3781 25.124 62.3661 25.4 62.3661 25.7C62.3661 26.348 62.3841 26.99 62.4201 27.626C62.4681 28.526 62.5881 29.402 62.7801 30.254C62.9721 31.142 63.2541 31.586 63.6261 31.586ZM75.3325 32.936C74.9605 32.936 74.7745 32.564 74.7745 31.82V30.668V29.516C74.7745 28.916 74.7325 28.13 74.6485 27.158C74.5525 26.066 74.5045 25.316 74.5045 24.908L74.5405 23.792C74.5645 23.468 74.5765 23.102 74.5765 22.694C74.5285 22.85 74.3305 23.678 73.9825 25.178C73.6345 26.63 73.2745 27.974 72.9025 29.21C72.5425 30.398 72.2485 30.992 72.0205 30.992C71.7925 30.992 71.6065 30.926 71.4625 30.794C71.3305 30.65 71.2645 30.458 71.2645 30.218C71.2645 29.69 71.0485 28.568 70.6165 26.852C70.1965 25.136 69.8125 23.732 69.4645 22.64L69.3565 24.674C69.2605 26.39 69.1945 27.818 69.1585 28.958C69.1345 30.062 69.1225 30.818 69.1225 31.226C69.1225 31.322 69.1285 31.412 69.1405 31.496V31.748C69.1405 31.952 69.0985 32.102 69.0145 32.198C68.9305 32.306 68.7745 32.36 68.5465 32.36C68.4265 32.36 68.3125 32.312 68.2045 32.216C68.0965 32.132 68.0425 32.036 68.0425 31.928C68.0425 30.704 68.1325 28.868 68.3125 26.42C68.4925 23.972 68.5825 22.136 68.5825 20.912C68.5105 20.804 68.4745 20.69 68.4745 20.57C68.4745 20.426 68.5405 20.318 68.6725 20.246C68.8165 20.162 68.9845 20.12 69.1765 20.12C69.3325 20.12 69.6205 20.684 70.0405 21.812C70.4605 22.94 70.8805 24.218 71.3005 25.646C71.7205 27.074 71.9905 28.106 72.1105 28.742C72.2065 28.418 72.2845 28.118 72.3445 27.842L72.4525 27.41C72.8365 25.73 73.2205 24.212 73.6045 22.856C73.8325 22.028 74.0545 21.38 74.2705 20.912C74.4865 20.408 74.6845 20.156 74.8645 20.156C75.0325 20.156 75.1825 20.204 75.3145 20.3C75.4585 20.384 75.5305 20.498 75.5305 20.642C75.5305 21.506 75.5665 22.802 75.6385 24.53C75.7225 26.138 75.7645 27.386 75.7645 28.274L75.7465 29.228L75.7105 30.182C75.7105 30.326 75.7285 30.542 75.7645 30.83L75.8185 31.46C75.8305 31.568 75.8365 31.652 75.8365 31.712C75.8485 31.772 75.8545 31.808 75.8545 31.82C75.9145 31.976 75.9445 32.09 75.9445 32.162C75.9445 32.366 75.8845 32.546 75.7645 32.702C75.6445 32.858 75.5005 32.936 75.3325 32.936ZM80.2743 32.342C79.9623 32.342 79.6743 32.24 79.4103 32.036C79.1463 31.844 78.9303 31.58 78.7623 31.244C78.4143 30.512 78.1983 29.714 78.1143 28.85C78.0063 28.034 77.9523 27.248 77.9523 26.492C77.9523 26.348 77.9583 26.228 77.9703 26.132V25.808C77.9703 25.748 77.9643 25.718 77.9523 25.718V25.394L77.9703 24.134C77.9823 23.75 78.0303 23.138 78.1143 22.298C78.1743 21.722 78.3123 21.164 78.5283 20.624C78.6123 20.384 78.7203 20.204 78.8523 20.084C78.9843 19.952 79.1343 19.886 79.3023 19.886C79.7823 19.886 80.2143 19.976 80.5983 20.156C80.9823 20.324 81.3063 20.564 81.5703 20.876C81.8103 21.176 82.0143 21.548 82.1823 21.992C82.3503 22.424 82.4703 22.886 82.5423 23.378C82.6143 23.882 82.6503 24.416 82.6503 24.98V25.124C82.6503 25.496 82.6563 25.832 82.6683 26.132L82.6863 27.158C82.6863 30.614 81.8823 32.342 80.2743 32.342ZM80.2023 31.586C80.4183 31.586 80.6163 31.502 80.7963 31.334C80.9763 31.154 81.1143 30.914 81.2103 30.614C81.4383 30.002 81.5763 29.342 81.6243 28.634C81.6843 28.022 81.7143 27.494 81.7143 27.05C81.7143 26.51 81.6723 25.802 81.5883 24.926C81.5163 24.002 81.4803 23.312 81.4803 22.856V22.532C81.4563 22.076 81.3003 21.68 81.0123 21.344C80.7363 21.008 80.3943 20.84 79.9863 20.84C79.5783 20.84 79.3083 21.074 79.1763 21.542C79.0563 21.914 78.9963 22.394 78.9963 22.982C78.9963 23.21 79.0023 23.402 79.0143 23.558V24.044L78.9783 24.872C78.9543 25.124 78.9423 25.4 78.9423 25.7C78.9423 26.348 78.9603 26.99 78.9963 27.626C79.0443 28.526 79.1643 29.402 79.3563 30.254C79.5483 31.142 79.8303 31.586 80.2023 31.586Z" fill="#E2E2E2"/>
<path d="M28 43H106V66H28V43Z" fill="#A21414"/>
<path d="M59.926 61.144C59.374 61.144 59.098 60.994 59.098 60.694L59.134 58.48L59.17 56.266C59.17 55.462 59.152 54.244 59.116 52.612C59.08 50.992 59.062 49.774 59.062 48.958V48.85C59.062 48.538 59.092 48.25 59.152 47.986C59.224 47.662 59.416 47.5 59.728 47.5C60.568 47.5 61.234 47.77 61.726 48.31C62.218 48.85 62.464 49.564 62.464 50.452C62.464 50.992 62.32 51.556 62.032 52.144C61.744 52.732 61.402 53.17 61.006 53.458C61.702 53.926 62.212 54.532 62.536 55.276C62.872 56.008 63.04 56.818 63.04 57.706C63.04 58.126 62.896 58.648 62.608 59.272C62.26 60.016 61.786 60.55 61.186 60.874C60.826 61.054 60.43 61.144 59.998 61.144H59.926ZM60.106 53.188C60.418 53.116 60.682 52.858 60.898 52.414C61.078 52.078 61.246 51.67 61.402 51.19C61.438 51.058 61.498 50.89 61.582 50.686V50.056C61.582 49.696 61.45 49.348 61.186 49.012C60.922 48.676 60.622 48.508 60.286 48.508C60.118 48.508 60.034 48.694 60.034 49.066C60.034 49.858 60.046 50.566 60.07 51.19L60.106 53.188ZM60.178 60.208C60.766 60.124 61.234 59.854 61.582 59.398C61.93 58.942 62.104 58.396 62.104 57.76C62.104 57.208 62.056 56.704 61.96 56.248C61.876 55.78 61.762 55.426 61.618 55.186C61.486 54.958 61.354 54.766 61.222 54.61C61.09 54.454 60.976 54.352 60.88 54.304L60.736 54.25H60.088C60.148 55.63 60.178 57.616 60.178 60.208ZM66.6842 61.27C66.3962 61.27 66.1382 61.204 65.9102 61.072C65.6822 60.952 65.4962 60.772 65.3522 60.532C65.0642 60.028 64.8782 59.458 64.7942 58.822C64.7102 58.27 64.6682 57.61 64.6682 56.842C64.6322 55.546 64.6142 53.962 64.6142 52.09L64.5962 50.704C64.5842 50.632 64.5782 50.512 64.5782 50.344C64.5542 49.888 64.5422 49.612 64.5422 49.516C64.6502 49.264 64.7762 49.138 64.9202 49.138C65.0642 49.138 65.1902 49.246 65.2982 49.462C65.4182 49.678 65.4782 49.912 65.4782 50.164V55.06C65.4782 55.54 65.5202 56.176 65.6042 56.968C65.6882 57.952 65.7302 58.588 65.7302 58.876C65.7302 59.764 66.1082 60.208 66.8642 60.208C67.7282 60.208 68.1602 56.98 68.1602 50.524V49.516V49.354C68.1482 49.318 68.1422 49.27 68.1422 49.21C68.1422 49.066 68.1722 48.964 68.2322 48.904C68.3042 48.832 68.4362 48.796 68.6282 48.796C68.7842 48.796 68.9042 48.844 68.9882 48.94C69.0842 49.024 69.1442 49.126 69.1682 49.246C69.1802 49.318 69.1862 49.456 69.1862 49.66C69.1862 49.852 69.1682 50.158 69.1322 50.578C69.0842 50.926 69.0602 51.226 69.0602 51.478C69.0602 51.754 69.0482 52 69.0242 52.216L68.9882 52.972V53.116C69.0002 53.164 69.0062 53.218 69.0062 53.278C69.0062 58.606 68.2322 61.27 66.6842 61.27ZM72.7381 61.252C72.5341 61.252 72.3661 61.12 72.2341 60.856C72.3661 60.604 72.4321 59.584 72.4321 57.796C72.4321 57.376 72.4021 56.92 72.3421 56.428L72.2881 55.906C72.2521 55.582 72.2341 55.336 72.2341 55.168V54.7C72.1141 54.4 71.8921 53.842 71.5681 53.026C71.2561 52.21 71.0041 51.526 70.8121 50.974C70.5841 50.338 70.4701 49.906 70.4701 49.678V49.588L70.8841 49.282C71.0881 49.306 71.3041 49.57 71.5321 50.074C71.7241 50.518 71.9341 51.154 72.1621 51.982C72.4021 52.81 72.5221 53.248 72.5221 53.296C72.5701 53.164 72.6661 52.714 72.8101 51.946C72.9541 51.178 73.1161 50.5 73.2961 49.912C73.5001 49.324 73.7101 49.03 73.9261 49.03C74.0461 49.03 74.1481 49.066 74.2321 49.138C74.3281 49.21 74.3761 49.3 74.3761 49.408C74.3761 50.02 74.2081 50.884 73.8721 52C73.5121 53.212 73.3321 54.088 73.3321 54.628V60.046C73.3321 60.85 73.1341 61.252 72.7381 61.252Z" fill="#E2E2E2"/>
</svg>
