<svg width="41" height="55" viewBox="0 0 41 55" fill="none" xmlns="http://www.w3.org/2000/svg">
<path d="M24.5983 0.113098H3.1935C1.56341 0.113098 0.237305 1.45464 0.237305 3.10371V51.7949C0.237305 53.444 1.56341 54.7855 3.1935 54.7855H37.2186C38.8487 54.7855 40.1748 53.444 40.1748 51.7949V14.8735C40.1748 14.075 39.8673 13.3241 39.3091 12.7592L26.6556 0.956202C26.1013 0.41216 25.3726 0.113098 24.5983 0.113098ZM36.4795 51.0473H3.93255V3.85137H21.6126V13.8789C21.6126 16.0932 23.3925 17.8948 25.58 17.8948H36.4795V51.0473ZM25.58 14.1565C25.43 14.1565 25.3078 14.0319 25.3078 13.8789V6.0086L33.9222 14.1563L25.58 14.1565ZM9.31997 24.4879C8.05373 24.4879 7.02375 25.5301 7.02375 26.8108C7.02375 28.0918 8.05398 29.1338 9.31997 29.1338C10.5862 29.1338 11.6162 28.0915 11.6162 26.8108C11.6162 25.5301 10.586 24.4879 9.31997 24.4879ZM13.5079 24.9419H33.0927V28.6802H13.5079V24.9419ZM9.31997 31.9644C8.05373 31.9644 7.02375 33.0066 7.02375 34.2873C7.02375 35.5681 8.05398 36.6103 9.31997 36.6103C10.5862 36.6103 11.6162 35.5681 11.6162 34.2873C11.6162 33.0066 10.586 31.9644 9.31997 31.9644ZM13.5079 32.4182H33.0927V36.1565H13.5079V32.4182ZM9.31997 39.4409C8.05373 39.4409 7.02375 40.4832 7.02375 41.7639C7.02375 43.0446 8.05398 44.0868 9.31997 44.0868C10.5862 44.0868 11.6162 43.0446 11.6162 41.7639C11.6162 40.4832 10.586 39.4409 9.31997 39.4409ZM13.5079 39.8948H33.0927V43.633H13.5079V39.8948Z" fill="#E2E2E2"/>
</svg>
